<svg version="1.1" id="Layer_1" xmlns="http://www.w3.org/2000/svg" xmlns:xlink="http://www.w3.org/1999/xlink" x="0px" y="0px"
	 width="100%" viewBox="0 0 280 266" enable-background="new 0 0 280 266" xml:space="preserve">
<path fill="#FEFEFD" opacity="1.000000" stroke="none" 
	d="
M166.000000,267.000000 
	C110.666664,267.000000 55.833332,267.000000 1.000000,267.000000 
	C1.000000,178.333328 1.000000,89.666664 1.000000,1.000000 
	C94.333336,1.000000 187.666672,1.000000 281.000000,1.000000 
	C281.000000,89.666664 281.000000,178.333328 281.000000,267.000000 
	C242.833328,267.000000 204.666672,267.000000 166.000000,267.000000 
M193.531189,120.655540 
	C200.238617,119.423035 206.998642,118.419983 213.639740,116.898010 
	C221.364700,115.127640 225.392380,108.049156 222.495743,100.824753 
	C216.944229,86.978928 209.348129,74.302078 199.017227,63.431190 
	C198.099258,62.465248 196.155701,61.881203 194.787094,62.029568 
	C183.263840,63.278748 174.799561,56.940094 173.023544,45.772743 
	C172.788177,44.292870 171.583923,42.410439 170.294571,41.737957 
	C149.461105,30.871946 127.568672,28.899712 104.905304,34.510475 
	C100.126846,35.693478 97.772240,39.156178 98.841209,42.654091 
	C100.002068,46.452656 103.318642,47.361168 108.153595,46.735191 
	C117.010178,45.588531 125.978104,44.380600 134.861176,44.620632 
	C143.622116,44.857368 149.627197,52.376652 149.271896,61.247112 
	C149.053070,66.710541 147.978989,72.138084 147.326187,77.586205 
	C146.646652,83.257507 146.011917,88.934189 145.452240,93.787666 
	C151.611115,96.088234 157.005280,97.464821 161.740463,100.048943 
	C166.610733,102.706787 170.838058,106.542763 175.653290,110.088966 
	C184.065750,102.788811 192.675949,95.317055 201.789871,87.408180 
	C204.074036,91.671707 206.238541,95.205551 207.903793,98.960785 
	C209.611649,102.812065 208.099548,105.140701 203.749207,105.978912 
	C198.684555,106.954750 193.439560,107.355179 188.599213,108.978516 
	C186.269989,109.759674 183.687103,112.528267 183.112549,114.862854 
	C182.708694,116.503853 185.119522,119.454819 186.999725,120.822472 
	C188.241837,121.725990 190.771469,120.859489 193.531189,120.655540 
M50.142441,163.940628 
	C51.219681,165.430939 51.979317,167.435287 53.425339,168.328735 
	C63.320797,174.442703 65.931686,183.319885 60.961655,194.028580 
	C60.311985,195.428391 60.220749,197.681549 60.900131,199.015091 
	C71.458206,219.739410 87.605621,234.437729 109.216293,243.052841 
	C114.011490,244.964432 118.064529,243.556076 119.340012,239.894684 
	C120.601601,236.273163 118.447586,233.713013 113.810020,231.266632 
	C106.350349,227.331512 98.792358,223.358704 92.036522,218.371475 
	C84.017662,212.451904 83.602798,201.537354 90.236969,194.096512 
	C92.673523,191.363708 95.327614,188.825439 97.867722,186.184235 
	C102.666740,181.194244 107.455078,176.193954 112.443298,170.994217 
	C103.289818,162.563965 98.753197,152.434708 97.372177,140.525711 
	C85.450592,141.500687 73.994911,142.437576 62.061489,143.413528 
	C62.791897,138.507294 63.180576,134.523087 64.018410,130.635681 
	C64.948647,126.319572 67.346046,125.216789 71.403206,127.072861 
	C75.939148,129.147964 80.377892,131.434830 84.870071,133.606506 
	C89.006813,135.606369 92.729828,134.778915 94.418617,131.518433 
	C96.141327,128.192444 94.749359,124.617516 90.657936,122.574409 
	C84.411827,119.455322 78.100426,116.464432 71.780304,113.496727 
	C62.348572,109.067917 55.053825,112.779282 52.765015,122.879868 
	C49.757629,136.151520 49.085495,149.547958 50.142441,163.940628 
M228.910812,172.323441 
	C230.801407,169.715607 231.148254,167.353302 229.576157,164.099686 
	C225.286102,155.220932 229.228699,145.147766 238.049728,140.306335 
	C239.692657,139.404617 241.648346,137.516754 241.891296,135.854752 
	C245.294861,112.571266 241.126846,90.814919 227.996674,71.050201 
	C225.695389,67.586082 221.353714,66.538544 218.537186,68.789955 
	C215.240326,71.425339 215.663956,74.437096 217.457550,78.091881 
	C221.245621,85.810760 224.622635,93.742172 227.909943,101.693199 
	C231.834137,111.184692 222.940979,121.941055 213.550812,123.117264 
	C203.702148,124.350899 193.968246,126.500633 183.701935,128.336227 
	C186.193741,140.451599 183.740509,151.397629 177.790237,161.894547 
	C187.944290,168.049362 197.685516,173.953934 207.426758,179.858505 
	C207.899597,180.637207 208.372452,181.415894 208.845291,182.194595 
	C205.747162,184.457153 202.514465,186.559662 199.584732,189.022537 
	C195.853867,192.158859 193.326874,191.888794 190.859055,187.509018 
	C188.409760,183.162125 186.167038,178.698898 183.719940,174.350708 
	C181.801849,170.942520 179.139603,168.977249 175.093109,170.974579 
	C171.408447,172.793320 170.522797,175.970566 172.708801,180.239151 
	C175.967834,186.603012 179.344681,192.909561 182.805603,199.166275 
	C187.577850,207.793701 195.694061,209.409958 203.123657,202.926544 
	C213.080154,194.238022 221.807877,184.433685 228.910812,172.323441 
M139.415573,88.683533 
	C140.686111,79.654144 142.355103,70.657707 143.105301,61.585293 
	C143.743912,53.862484 137.994873,48.633320 130.284119,49.217571 
	C116.258934,50.280270 102.712349,53.394592 89.755791,58.998474 
	C86.955688,60.209553 85.438446,61.603176 84.912567,64.987869 
	C83.579330,73.568848 74.323479,81.086693 66.173607,79.454407 
	C60.396679,78.297394 57.447502,80.651024 54.478561,84.461937 
	C52.025208,87.611053 49.413509,90.653603 47.169708,93.946266 
	C37.581089,108.017097 32.328671,123.598557 31.353727,140.600555 
	C31.073490,145.487640 33.433693,148.634964 37.375721,148.857269 
	C41.237637,149.075073 43.241264,146.124649 44.003696,141.194809 
	C45.166340,133.677216 46.507057,126.113190 48.687996,118.843636 
	C52.368095,106.577095 62.745884,102.451729 74.259155,108.063911 
	C83.021141,112.334976 91.782417,116.607506 100.910179,121.057915 
	C106.201965,110.069214 114.112503,102.289902 125.483887,97.387924 
	C120.881393,86.511147 116.398628,75.917328 111.649452,64.693901 
	C116.302902,63.924812 120.174690,63.185291 124.075813,62.666298 
	C128.582153,62.066784 130.267975,63.538307 129.908325,68.152069 
	C129.508148,73.285439 128.691498,78.387276 128.021927,83.498352 
	C127.598015,86.734055 128.060196,90.104660 131.419495,90.912575 
	C133.687866,91.458115 136.452942,89.938370 139.415573,88.683533 
M96.108238,215.370880 
	C108.806732,223.557404 122.475548,229.453979 137.308151,232.426376 
	C138.912521,232.747879 141.273453,232.125214 142.499802,231.048187 
	C151.253433,223.360489 161.007614,223.458710 169.224625,231.448135 
	C170.279144,232.473450 172.064224,233.623856 173.319656,233.436310 
	C197.032730,229.894028 216.523148,218.773697 231.668365,200.189224 
	C234.631653,196.553009 234.229294,192.906616 231.196075,190.468948 
	C228.225464,188.081573 225.158844,189.125061 221.695435,192.414642 
	C215.338898,198.452133 208.904602,204.500244 201.897110,209.732864 
	C195.413040,214.574631 185.937927,212.826248 180.752808,206.564575 
	C178.766357,204.165680 177.314102,201.292618 175.812500,198.530136 
	C171.711288,190.985214 167.713409,183.384125 163.942383,176.307739 
	C157.835754,178.084335 152.539352,180.205124 147.046005,181.059555 
	C141.601334,181.906418 135.958145,181.477005 129.564545,181.627014 
	C127.188843,191.735367 124.555542,202.939789 121.773682,214.776321 
	C117.770493,212.838821 114.472717,211.332214 111.257690,209.665939 
	C106.336487,207.115341 105.953011,204.548996 109.816887,200.367050 
	C112.976135,196.947708 116.132187,193.521194 119.407211,190.214279 
	C122.393677,187.198700 123.402672,184.025848 120.391441,180.561249 
	C117.996292,177.805481 113.505470,178.266663 110.313744,181.553650 
	C105.330902,186.685226 100.408028,191.876434 95.528275,197.106308 
	C90.267868,202.744141 90.319809,208.818237 96.108238,215.370880 
M189.914764,29.792847 
	C183.778519,30.259195 179.829254,33.659031 177.718063,39.225872 
	C175.729843,44.468426 176.706894,49.346008 180.343155,53.586899 
	C184.593231,58.543671 191.796921,60.009693 197.561081,57.230877 
	C203.283630,54.472126 206.894287,47.651222 205.658081,41.573101 
	C204.269119,34.744041 198.294724,29.071157 189.914764,29.792847 
M65.783882,75.892189 
	C67.426750,75.749924 69.125168,75.826691 70.702629,75.426559 
	C76.767372,73.888191 81.203537,68.704063 81.754616,62.744701 
	C82.296669,56.882942 79.078011,51.116077 73.758766,48.418575 
	C68.306091,45.653404 61.594898,46.575043 57.139648,50.837444 
	C53.213768,54.593384 51.874805,59.368546 53.081951,64.509621 
	C54.532799,70.688629 58.641232,74.528229 65.783882,75.892189 
M32.320045,178.184647 
	C29.680790,186.021652 31.071096,192.170227 36.382061,196.148712 
	C41.461006,199.953430 48.710190,200.118149 53.596550,196.495773 
	C58.645241,192.753067 60.563816,187.684204 59.393852,181.592865 
	C58.257687,175.677475 53.626072,171.210510 47.463326,170.361206 
	C41.111534,169.485855 36.107040,171.970718 32.320045,178.184647 
M238.561722,169.219894 
	C239.469406,169.619995 240.352997,170.091034 241.288681,170.408676 
	C247.252823,172.433487 252.469757,171.030106 256.738373,166.562866 
	C261.143402,161.952866 261.993225,156.094910 259.070709,150.457367 
	C256.240936,144.998688 251.675400,142.076965 245.383987,142.252029 
	C239.689926,142.410461 234.036743,146.675339 232.238922,152.103973 
	C230.216110,158.212021 232.130676,163.879303 238.561722,169.219894 
M164.362579,231.996292 
	C156.888290,227.627579 148.853378,228.710693 144.329285,234.696762 
	C139.875488,240.589920 140.320602,248.674774 145.380875,253.795990 
	C151.135056,259.619476 160.618866,259.586426 166.345718,253.722977 
	C172.043655,247.889130 171.458679,239.039383 164.362579,231.996292 
z"/>
<path fill="#21447E" opacity="1.000000" stroke="none" 
	d="
M193.127914,120.720505 
	C190.771469,120.859489 188.241837,121.725990 186.999725,120.822472 
	C185.119522,119.454819 182.708694,116.503853 183.112549,114.862854 
	C183.687103,112.528267 186.269989,109.759674 188.599213,108.978516 
	C193.439560,107.355179 198.684555,106.954750 203.749207,105.978912 
	C208.099548,105.140701 209.611649,102.812065 207.903793,98.960785 
	C206.238541,95.205551 204.074036,91.671707 201.789871,87.408180 
	C192.675949,95.317055 184.065750,102.788811 175.653290,110.088966 
	C170.838058,106.542763 166.610733,102.706787 161.740463,100.048943 
	C157.005280,97.464821 151.611115,96.088234 145.452240,93.787666 
	C146.011917,88.934189 146.646652,83.257507 147.326187,77.586205 
	C147.978989,72.138084 149.053070,66.710541 149.271896,61.247112 
	C149.627197,52.376652 143.622116,44.857368 134.861176,44.620632 
	C125.978104,44.380600 117.010178,45.588531 108.153595,46.735191 
	C103.318642,47.361168 100.002068,46.452656 98.841209,42.654091 
	C97.772240,39.156178 100.126846,35.693478 104.905304,34.510475 
	C127.568672,28.899712 149.461105,30.871946 170.294571,41.737957 
	C171.583923,42.410439 172.788177,44.292870 173.023544,45.772743 
	C174.799561,56.940094 183.263840,63.278748 194.787094,62.029568 
	C196.155701,61.881203 198.099258,62.465248 199.017227,63.431190 
	C209.348129,74.302078 216.944229,86.978928 222.495743,100.824753 
	C225.392380,108.049156 221.364700,115.127640 213.639740,116.898010 
	C206.998642,118.419983 200.238617,119.423035 193.127914,120.720505 
z"/>
<path fill="#FFC114" opacity="1.000000" stroke="none" 
	d="
M50.126450,163.505814 
	C49.085495,149.547958 49.757629,136.151520 52.765015,122.879868 
	C55.053825,112.779282 62.348572,109.067917 71.780304,113.496727 
	C78.100426,116.464432 84.411827,119.455322 90.657936,122.574409 
	C94.749359,124.617516 96.141327,128.192444 94.418617,131.518433 
	C92.729828,134.778915 89.006813,135.606369 84.870071,133.606506 
	C80.377892,131.434830 75.939148,129.147964 71.403206,127.072861 
	C67.346046,125.216789 64.948647,126.319572 64.018410,130.635681 
	C63.180576,134.523087 62.791897,138.507294 62.061489,143.413528 
	C73.994911,142.437576 85.450592,141.500687 97.372177,140.525711 
	C98.753197,152.434708 103.289818,162.563965 112.443298,170.994217 
	C107.455078,176.193954 102.666740,181.194244 97.867722,186.184235 
	C95.327614,188.825439 92.673523,191.363708 90.236969,194.096512 
	C83.602798,201.537354 84.017662,212.451904 92.036522,218.371475 
	C98.792358,223.358704 106.350349,227.331512 113.810020,231.266632 
	C118.447586,233.713013 120.601601,236.273163 119.340012,239.894684 
	C118.064529,243.556076 114.011490,244.964432 109.216293,243.052841 
	C87.605621,234.437729 71.458206,219.739410 60.900131,199.015091 
	C60.220749,197.681549 60.311985,195.428391 60.961655,194.028580 
	C65.931686,183.319885 63.320797,174.442703 53.425339,168.328735 
	C51.979317,167.435287 51.219681,165.430939 50.126450,163.505814 
z"/>
<path fill="#4E9FD7" opacity="1.000000" stroke="none" 
	d="
M228.700943,172.631165 
	C221.807877,184.433685 213.080154,194.238022 203.123657,202.926544 
	C195.694061,209.409958 187.577850,207.793701 182.805603,199.166275 
	C179.344681,192.909561 175.967834,186.603012 172.708801,180.239151 
	C170.522797,175.970566 171.408447,172.793320 175.093109,170.974579 
	C179.139603,168.977249 181.801849,170.942520 183.719940,174.350708 
	C186.167038,178.698898 188.409760,183.162125 190.859055,187.509018 
	C193.326874,191.888794 195.853867,192.158859 199.584732,189.022537 
	C202.514465,186.559662 205.747162,184.457153 208.845291,182.194595 
	C208.372452,181.415894 207.899597,180.637207 207.426758,179.858505 
	C197.685516,173.953934 187.944290,168.049362 177.790237,161.894547 
	C183.740509,151.397629 186.193741,140.451599 183.701935,128.336227 
	C193.968246,126.500633 203.702148,124.350899 213.550812,123.117264 
	C222.940979,121.941055 231.834137,111.184692 227.909943,101.693199 
	C224.622635,93.742172 221.245621,85.810760 217.457550,78.091881 
	C215.663956,74.437096 215.240326,71.425339 218.537186,68.789955 
	C221.353714,66.538544 225.695389,67.586082 227.996674,71.050201 
	C241.126846,90.814919 245.294861,112.571266 241.891296,135.854752 
	C241.648346,137.516754 239.692657,139.404617 238.049728,140.306335 
	C229.228699,145.147766 225.286102,155.220932 229.576157,164.099686 
	C231.148254,167.353302 230.801407,169.715607 228.700943,172.631165 
z"/>
<path fill="#F68C4F" opacity="1.000000" stroke="none" 
	d="
M139.205704,89.012993 
	C136.452942,89.938370 133.687866,91.458115 131.419495,90.912575 
	C128.060196,90.104660 127.598015,86.734055 128.021927,83.498352 
	C128.691498,78.387276 129.508148,73.285439 129.908325,68.152069 
	C130.267975,63.538307 128.582153,62.066784 124.075813,62.666298 
	C120.174690,63.185291 116.302902,63.924812 111.649452,64.693901 
	C116.398628,75.917328 120.881393,86.511147 125.483887,97.387924 
	C114.112503,102.289902 106.201965,110.069214 100.910179,121.057915 
	C91.782417,116.607506 83.021141,112.334976 74.259155,108.063911 
	C62.745884,102.451729 52.368095,106.577095 48.687996,118.843636 
	C46.507057,126.113190 45.166340,133.677216 44.003696,141.194809 
	C43.241264,146.124649 41.237637,149.075073 37.375721,148.857269 
	C33.433693,148.634964 31.073490,145.487640 31.353727,140.600555 
	C32.328671,123.598557 37.581089,108.017097 47.169708,93.946266 
	C49.413509,90.653603 52.025208,87.611053 54.478561,84.461937 
	C57.447502,80.651024 60.396679,78.297394 66.173607,79.454407 
	C74.323479,81.086693 83.579330,73.568848 84.912567,64.987869 
	C85.438446,61.603176 86.955688,60.209553 89.755791,58.998474 
	C102.712349,53.394592 116.258934,50.280270 130.284119,49.217571 
	C137.994873,48.633320 143.743912,53.862484 143.105301,61.585293 
	C142.355103,70.657707 140.686111,79.654144 139.205704,89.012993 
z"/>
<path fill="#BFD632" opacity="1.000000" stroke="none" 
	d="
M95.838997,215.116394 
	C90.319809,208.818237 90.267868,202.744141 95.528275,197.106308 
	C100.408028,191.876434 105.330902,186.685226 110.313744,181.553650 
	C113.505470,178.266663 117.996292,177.805481 120.391441,180.561249 
	C123.402672,184.025848 122.393677,187.198700 119.407211,190.214279 
	C116.132187,193.521194 112.976135,196.947708 109.816887,200.367050 
	C105.953011,204.548996 106.336487,207.115341 111.257690,209.665939 
	C114.472717,211.332214 117.770493,212.838821 121.773682,214.776321 
	C124.555542,202.939789 127.188843,191.735367 129.564545,181.627014 
	C135.958145,181.477005 141.601334,181.906418 147.046005,181.059555 
	C152.539352,180.205124 157.835754,178.084335 163.942383,176.307739 
	C167.713409,183.384125 171.711288,190.985214 175.812500,198.530136 
	C177.314102,201.292618 178.766357,204.165680 180.752808,206.564575 
	C185.937927,212.826248 195.413040,214.574631 201.897110,209.732864 
	C208.904602,204.500244 215.338898,198.452133 221.695435,192.414642 
	C225.158844,189.125061 228.225464,188.081573 231.196075,190.468948 
	C234.229294,192.906616 234.631653,196.553009 231.668365,200.189224 
	C216.523148,218.773697 197.032730,229.894028 173.319656,233.436310 
	C172.064224,233.623856 170.279144,232.473450 169.224625,231.448135 
	C161.007614,223.458710 151.253433,223.360489 142.499802,231.048187 
	C141.273453,232.125214 138.912521,232.747879 137.308151,232.426376 
	C122.475548,229.453979 108.806732,223.557404 95.838997,215.116394 
z"/>
<path fill="#23457F" opacity="1.000000" stroke="none" 
	d="
M190.302063,29.760359 
	C198.294724,29.071157 204.269119,34.744041 205.658081,41.573101 
	C206.894287,47.651222 203.283630,54.472126 197.561081,57.230877 
	C191.796921,60.009693 184.593231,58.543671 180.343155,53.586899 
	C176.706894,49.346008 175.729843,44.468426 177.718063,39.225872 
	C179.829254,33.659031 183.778519,30.259195 190.302063,29.760359 
z"/>
<path fill="#F68D51" opacity="1.000000" stroke="none" 
	d="
M65.375809,75.850006 
	C58.641232,74.528229 54.532799,70.688629 53.081951,64.509621 
	C51.874805,59.368546 53.213768,54.593384 57.139648,50.837444 
	C61.594898,46.575043 68.306091,45.653404 73.758766,48.418575 
	C79.078011,51.116077 82.296669,56.882942 81.754616,62.744701 
	C81.203537,68.704063 76.767372,73.888191 70.702629,75.426559 
	C69.125168,75.826691 67.426750,75.749924 65.375809,75.850006 
z"/>
<path fill="#FFC115" opacity="1.000000" stroke="none" 
	d="
M32.539207,177.864944 
	C36.107040,171.970718 41.111534,169.485855 47.463326,170.361206 
	C53.626072,171.210510 58.257687,175.677475 59.393852,181.592865 
	C60.563816,187.684204 58.645241,192.753067 53.596550,196.495773 
	C48.710190,200.118149 41.461006,199.953430 36.382061,196.148712 
	C31.071096,192.170227 29.680790,186.021652 32.539207,177.864944 
z"/>
<path fill="#4F9FD7" opacity="1.000000" stroke="none" 
	d="
M238.227448,169.030502 
	C232.130676,163.879303 230.216110,158.212021 232.238922,152.103973 
	C234.036743,146.675339 239.689926,142.410461 245.383987,142.252029 
	C251.675400,142.076965 256.240936,144.998688 259.070709,150.457367 
	C261.993225,156.094910 261.143402,161.952866 256.738373,166.562866 
	C252.469757,171.030106 247.252823,172.433487 241.288681,170.408676 
	C240.352997,170.091034 239.469406,169.619995 238.227448,169.030502 
z"/>
<path fill="#C0D633" opacity="1.000000" stroke="none" 
	d="
M164.651703,232.232971 
	C171.458679,239.039383 172.043655,247.889130 166.345718,253.722977 
	C160.618866,259.586426 151.135056,259.619476 145.380875,253.795990 
	C140.320602,248.674774 139.875488,240.589920 144.329285,234.696762 
	C148.853378,228.710693 156.888290,227.627579 164.651703,232.232971 
z"/>
</svg>