<svg xmlns="http://www.w3.org/2000/svg" version="1.1" xmlns:xlink="http://www.w3.org/1999/xlink" xmlns:svgjs="http://svgjs.dev/svgjs" width="1000" height="750" viewBox="0 0 1000 750"><rect width="1000" height="750" fill="#051726"></rect><g transform="matrix(0.834,0,0,0.834,82.43932492418378,19.170354655870483)"><svg viewBox="0 0 289 247" data-background-color="#051726" preserveAspectRatio="xMidYMid meet" height="854" width="1000" xmlns="http://www.w3.org/2000/svg" xmlns:xlink="http://www.w3.org/1999/xlink"><g id="tight-bounds" transform="matrix(1,0,0,1,0.1942866869435136,-0.09999999999999432)"><svg viewBox="0 0 288.611426626113 247.2" height="247.2" width="288.611426626113"><g><svg viewBox="0 0 395.52 338.7687907681536" height="247.2" width="288.611426626113"><g transform="matrix(1,0,0,1,0,267.9769833157462)"><svg viewBox="0 0 395.52 70.7918074524074" height="70.7918074524074" width="395.52"><g id="textblocktransform"><svg viewBox="0 0 395.52 70.7918074524074" height="70.7918074524074" width="395.52" id="textblock"><g><svg viewBox="0 0 395.52 39.89498858968507" height="39.89498858968507" width="395.52"><g transform="matrix(1,0,0,1,0,0)"><svg width="395.52" viewBox="2 -31.3 328.62 33.15" height="39.89498858968507" data-palette-color="#ffffff"><path d="M11.9-21.7Q9.05-21.7 6.8-20.25 4.55-18.8 3.28-16.2 2-13.6 2-10.35L2-10.35Q2-7.2 3.18-4.73 4.35-2.25 6.43-0.88 8.5 0.5 11.15 0.5L11.15 0.5Q13.9 0.5 15.93-0.95 17.95-2.4 18.95-5.05L18.95-5.05 19.15-5.6 18.95-5.7 18.5-5.1Q17.25-3.5 15.78-2.73 14.3-1.95 12.45-1.95L12.45-1.95Q9.05-1.95 7.2-4.35 5.35-6.75 5.35-11.1L5.35-11.1Q5.35-14 6.18-16.3 7-18.6 8.45-19.9 9.9-21.2 11.7-21.2L11.7-21.2Q13.2-21.2 13.75-20.4 14.3-19.6 14.65-18.05L14.65-18.05Q14.95-16.7 15.33-16.07 15.7-15.45 16.7-15.45L16.7-15.45Q17.55-15.45 18.05-15.98 18.55-16.5 18.55-17.35L18.55-17.35Q18.55-19.2 16.63-20.45 14.7-21.7 11.9-21.7L11.9-21.7ZM32.2-21.7Q35.1-21.7 37.35-20.3 39.6-18.9 40.85-16.38 42.1-13.85 42.1-10.6L42.1-10.6Q42.1-7.35 40.85-4.83 39.6-2.3 37.35-0.9 35.1 0.5 32.2 0.5L32.2 0.5Q29.3 0.5 27.05-0.9 24.8-2.3 23.55-4.83 22.3-7.35 22.3-10.6L22.3-10.6Q22.3-13.85 23.55-16.38 24.8-18.9 27.05-20.3 29.3-21.7 32.2-21.7L32.2-21.7ZM26-10.6Q26-5.6 27.65-2.8 29.3 0 32.2 0L32.2 0Q35.1 0 36.75-2.8 38.4-5.6 38.4-10.6L38.4-10.6Q38.4-15.6 36.75-18.4 35.1-21.2 32.2-21.2L32.2-21.2Q29.3-21.2 27.65-18.4 26-15.6 26-10.6L26-10.6ZM72.94-0.8L76.05-0.4 76.05 0 66.64 0 66.64-0.4 69.69-0.8 69.69-13.55Q69.69-15.5 69.59-16.45 69.5-17.4 69.25-18.05L69.25-18.05Q68.5-19.85 66.25-19.85L66.25-19.85Q63.84-19.85 62.2-17.65L62.2-17.65Q62.3-15.95 62.3-13.55L62.3-13.55 62.3-0.8 65.39-0.4 65.39 0 55.95 0 55.95-0.4 59.05-0.8 59.05-13.55Q59.05-15.5 58.95-16.45 58.84-17.4 58.59-18.05L58.59-18.05Q57.84-19.85 55.59-19.85L55.59-19.85Q53.24-19.85 51.64-17.8L51.64-17.8 51.64-0.8 54.7-0.4 54.7 0 45.39 0 45.39-0.4 48.39-0.8 48.39-18.3 45.45-19.4 45.45-19.75 51.09-21.7 51.49-21.7 51.49-18.35Q54.45-21.7 57.64-21.7L57.64-21.7Q60.55-21.7 61.75-19.25L61.75-19.25Q61.95-18.85 62.09-18.25L62.09-18.25Q65.14-21.7 68.3-21.7L68.3-21.7Q71.19-21.7 72.39-19.25L72.39-19.25Q72.75-18.6 72.84-17.43 72.94-16.25 72.94-13.55L72.94-13.55 72.94-0.8ZM105.54-0.8L108.64-0.4 108.64 0 99.24 0 99.24-0.4 102.29-0.8 102.29-13.55Q102.29-15.5 102.19-16.45 102.09-17.4 101.84-18.05L101.84-18.05Q101.09-19.85 98.84-19.85L98.84-19.85Q96.44-19.85 94.79-17.65L94.79-17.65Q94.89-15.95 94.89-13.55L94.89-13.55 94.89-0.8 97.99-0.4 97.99 0 88.54 0 88.54-0.4 91.64-0.8 91.64-13.55Q91.64-15.5 91.54-16.45 91.44-17.4 91.19-18.05L91.19-18.05Q90.44-19.85 88.19-19.85L88.19-19.85Q85.84-19.85 84.24-17.8L84.24-17.8 84.24-0.8 87.29-0.4 87.29 0 77.99 0 77.99-0.4 80.99-0.8 80.99-18.3 78.04-19.4 78.04-19.75 83.69-21.7 84.09-21.7 84.09-18.35Q87.04-21.7 90.24-21.7L90.24-21.7Q93.14-21.7 94.34-19.25L94.34-19.25Q94.54-18.85 94.69-18.25L94.69-18.25Q97.74-21.7 100.89-21.7L100.89-21.7Q103.79-21.7 104.99-19.25L104.99-19.25Q105.34-18.6 105.44-17.43 105.54-16.25 105.54-13.55L105.54-13.55 105.54-0.8ZM127.59-3.1L130.34-2.5 130.34-2.25 124.89 0.25 124.59 0.25 124.59-3.15 124.44-3.2Q121.49 0.5 118.09 0.5L118.09 0.5Q116.54 0.5 115.34-0.15 114.14-0.8 113.59-1.95L113.59-1.95Q113.24-2.6 113.14-3.73 113.04-4.85 113.04-7.65L113.04-7.65 113.04-20.4 110.04-20.8 110.04-21.2 116.29-21.2 116.29-7.65Q116.29-5.65 116.39-4.73 116.49-3.8 116.79-3.15L116.79-3.15Q117.14-2.35 117.96-1.88 118.79-1.4 119.84-1.4L119.84-1.4Q121.09-1.4 122.24-2.02 123.39-2.65 124.34-3.85L124.34-3.85 124.34-20.4 121.34-20.8 121.34-21.2 127.59-21.2 127.59-3.1ZM150.74-0.8L153.74-0.4 153.74 0 144.44 0 144.44-0.4 147.49-0.8 147.49-13.55Q147.49-15.5 147.39-16.45 147.29-17.4 146.99-18.05L146.99-18.05Q146.59-18.9 145.66-19.38 144.74-19.85 143.54-19.85L143.54-19.85Q140.99-19.85 138.99-17.7L138.99-17.7 138.99-0.8 142.04-0.4 142.04 0 132.69 0 132.69-0.4 135.74-0.8 135.74-18.05 132.79-19.15 132.79-19.5 138.44-21.45 138.84-21.45 138.84-18.3Q142.04-21.7 145.54-21.7L145.54-21.7Q147.09-21.7 148.36-21.03 149.64-20.35 150.19-19.25L150.19-19.25Q150.54-18.6 150.64-17.48 150.74-16.35 150.74-13.55L150.74-13.55 150.74-0.8ZM157.78-28.9Q157.78-29.95 158.46-30.63 159.13-31.3 160.19-31.3L160.19-31.3Q161.23-31.3 161.91-30.63 162.59-29.95 162.59-28.9L162.59-28.9Q162.59-27.85 161.91-27.18 161.23-26.5 160.19-26.5L160.19-26.5Q159.13-26.5 158.46-27.18 157.78-27.85 157.78-28.9L157.78-28.9ZM162.09-0.8L162.09-21.7 161.69-21.7 155.88-19.75 155.88-19.4 158.84-18.3 158.84-0.8 155.78-0.4 155.78 0 165.13 0 165.13-0.4 162.09-0.8ZM168.58 1.85L182.58 1.85 182.93 0.75 168.93 0.75 168.58 1.85ZM197.68-21.7Q194.83-21.7 192.58-20.25 190.33-18.8 189.06-16.2 187.78-13.6 187.78-10.35L187.78-10.35Q187.78-7.2 188.96-4.73 190.13-2.25 192.21-0.88 194.28 0.5 196.93 0.5L196.93 0.5Q199.68 0.5 201.71-0.95 203.73-2.4 204.73-5.05L204.73-5.05 204.93-5.6 204.73-5.7 204.28-5.1Q203.03-3.5 201.56-2.73 200.08-1.95 198.23-1.95L198.23-1.95Q194.83-1.95 192.98-4.35 191.13-6.75 191.13-11.1L191.13-11.1Q191.13-14 191.96-16.3 192.78-18.6 194.23-19.9 195.68-21.2 197.48-21.2L197.48-21.2Q198.98-21.2 199.53-20.4 200.08-19.6 200.43-18.05L200.43-18.05Q200.73-16.7 201.1-16.07 201.48-15.45 202.48-15.45L202.48-15.45Q203.33-15.45 203.83-15.98 204.33-16.5 204.33-17.35L204.33-17.35Q204.33-19.2 202.41-20.45 200.48-21.7 197.68-21.7L197.68-21.7ZM217.98-21.7Q220.88-21.7 223.13-20.3 225.38-18.9 226.63-16.38 227.88-13.85 227.88-10.6L227.88-10.6Q227.88-7.35 226.63-4.83 225.38-2.3 223.13-0.9 220.88 0.5 217.98 0.5L217.98 0.5Q215.08 0.5 212.83-0.9 210.58-2.3 209.33-4.83 208.08-7.35 208.08-10.6L208.08-10.6Q208.08-13.85 209.33-16.38 210.58-18.9 212.83-20.3 215.08-21.7 217.98-21.7L217.98-21.7ZM211.78-10.6Q211.78-5.6 213.43-2.8 215.08 0 217.98 0L217.98 0Q220.88 0 222.53-2.8 224.18-5.6 224.18-10.6L224.18-10.6Q224.18-15.6 222.53-18.4 220.88-21.2 217.98-21.2L217.98-21.2Q215.08-21.2 213.43-18.4 211.78-15.6 211.78-10.6L211.78-10.6ZM249.18-0.8L252.18-0.4 252.18 0 242.88 0 242.88-0.4 245.93-0.8 245.93-13.55Q245.93-15.5 245.83-16.45 245.73-17.4 245.43-18.05L245.43-18.05Q245.03-18.9 244.1-19.38 243.18-19.85 241.98-19.85L241.98-19.85Q239.43-19.85 237.43-17.7L237.43-17.7 237.43-0.8 240.48-0.4 240.48 0 231.13 0 231.13-0.4 234.18-0.8 234.18-18.05 231.23-19.15 231.23-19.5 236.88-21.45 237.28-21.45 237.28-18.3Q240.48-21.7 243.98-21.7L243.98-21.7Q245.53-21.7 246.8-21.03 248.08-20.35 248.63-19.25L248.63-19.25Q248.98-18.6 249.08-17.48 249.18-16.35 249.18-13.55L249.18-13.55 249.18-0.8ZM272.27-0.8L275.27-0.4 275.27 0 265.97 0 265.97-0.4 269.02-0.8 269.02-13.55Q269.02-15.5 268.92-16.45 268.82-17.4 268.52-18.05L268.52-18.05Q268.12-18.9 267.2-19.38 266.27-19.85 265.07-19.85L265.07-19.85Q262.52-19.85 260.52-17.7L260.52-17.7 260.52-0.8 263.57-0.4 263.57 0 254.22 0 254.22-0.4 257.27-0.8 257.27-18.05 254.32-19.15 254.32-19.5 259.97-21.45 260.37-21.45 260.37-18.3Q263.57-21.7 267.07-21.7L267.07-21.7Q268.62-21.7 269.9-21.03 271.17-20.35 271.72-19.25L271.72-19.25Q272.07-18.6 272.17-17.48 272.27-16.35 272.27-13.55L272.27-13.55 272.27-0.8ZM294.57-5.1L295.02-5.7 295.22-5.6 295.02-5.05Q294.02-2.4 292.05-0.95 290.07 0.5 287.32 0.5L287.32 0.5Q284.62 0.5 282.52-0.9 280.42-2.3 279.25-4.8 278.07-7.3 278.07-10.55L278.07-10.55Q278.07-13.8 279.32-16.35 280.57-18.9 282.87-20.3 285.17-21.7 288.12-21.7L288.12-21.7Q291.62-21.7 293.5-19.63 295.37-17.55 295.42-13.6L295.42-13.6 295.12-13.35 281.62-13.35Q281.52-12.05 281.52-11.3L281.52-11.3Q281.52-6.75 283.37-4.38 285.22-2 288.52-2L288.52-2Q290.22-2 291.8-2.78 293.37-3.55 294.57-5.1L294.57-5.1ZM287.57-21.15Q285.22-21.15 283.67-19.2 282.12-17.25 281.67-13.9L281.67-13.9 291.37-14.25Q291.52-14.85 291.52-16.25L291.52-16.25Q291.52-18.95 290.5-20.05 289.47-21.15 287.57-21.15L287.57-21.15ZM309.12-21.7Q306.27-21.7 304.02-20.25 301.77-18.8 300.49-16.2 299.22-13.6 299.22-10.35L299.22-10.35Q299.22-7.2 300.39-4.73 301.57-2.25 303.64-0.88 305.72 0.5 308.37 0.5L308.37 0.5Q311.12 0.5 313.14-0.95 315.17-2.4 316.17-5.05L316.17-5.05 316.37-5.6 316.17-5.7 315.72-5.1Q314.47-3.5 312.99-2.73 311.52-1.95 309.67-1.95L309.67-1.95Q306.27-1.95 304.42-4.35 302.57-6.75 302.57-11.1L302.57-11.1Q302.57-14 303.39-16.3 304.22-18.6 305.67-19.9 307.12-21.2 308.92-21.2L308.92-21.2Q310.42-21.2 310.97-20.4 311.52-19.6 311.87-18.05L311.87-18.05Q312.17-16.7 312.54-16.07 312.92-15.45 313.92-15.45L313.92-15.45Q314.77-15.45 315.27-15.98 315.77-16.5 315.77-17.35L315.77-17.35Q315.77-19.2 313.84-20.45 311.92-21.7 309.12-21.7L309.12-21.7ZM324.22-26L318.72-20.7 318.82-20.45 321.17-20.45 321.17-4.45Q321.17-2.9 321.52-1.95 321.87-1 322.72-0.4L322.72-0.4Q323.97 0.5 325.57 0.5L325.57 0.5Q327.12 0.5 328.49-0.4 329.87-1.3 330.62-2.85L330.62-2.85 330.42-3Q329.52-2.1 328.77-1.7 328.02-1.3 327.22-1.3L327.22-1.3Q325.57-1.3 324.97-2.5L324.97-2.5Q324.42-3.35 324.42-5.1L324.42-5.1 324.42-20.4 329.82-20.4 330.12-21.2 324.42-21.2 324.42-25.95 324.22-26Z" opacity="1" transform="matrix(1,0,0,1,0,0)" fill="#ffffff" class="wordmark-text-0" data-fill-palette-color="primary" id="text-0"></path></svg></g></svg></g><g transform="matrix(1,0,0,1,0,49.313237915983564)"><svg viewBox="0 0 395.52 21.47856953642384" height="21.47856953642384" width="395.52"><g transform="matrix(1,0,0,1,0,0)"><svg width="395.52" viewBox="3.5 -44.15 1056.91 57.4" height="21.47856953642384" data-palette-color="#81ffd9"><path d="M25-40.3Q30.3-40.3 34.38-37.75 38.45-35.2 40.7-30.7 42.95-26.2 42.95-20.5L42.95-20.5Q42.95-14.65 39.55-9.7 36.15-4.75 31.1-1.88 26.05 1 21.45 1L21.45 1Q16.15 1 12.08-1.53 8-4.05 5.75-8.55 3.5-13.05 3.5-18.75L3.5-18.75Q3.5-24.6 6.9-29.58 10.3-34.55 15.35-37.43 20.4-40.3 25-40.3L25-40.3ZM22.1-36.1Q18.8-36.1 16.07-34.18 13.35-32.25 11.8-28.83 10.25-25.4 10.25-21.15L10.25-21.15Q10.25-16.25 11.8-12.18 13.35-8.1 16.53-5.65 19.7-3.2 24.35-3.2L24.35-3.2Q27.65-3.2 30.38-5.13 33.1-7.05 34.65-10.48 36.2-13.9 36.2-18.15L36.2-18.15Q36.2-23.1 34.65-27.18 33.1-31.25 29.95-33.68 26.8-36.1 22.1-36.1L22.1-36.1ZM81.15-1.95L80.15 0.05 70.65 0.05 70.65-16.8Q70.65-19.55 69.8-20.65 68.95-21.75 66.75-21.75L66.75-21.75Q65.1-21.75 63.47-21.15 61.85-20.55 59.65-18.85L59.65-18.85 59.65-3.7 64.15-1.95 63.15 0.05 49.2 0.05 49.2-1.5 53.65-5 53.65-19.15 49.2-21.75 49.2-23.3 57.75-27.5 59.4-21 66.5-26.65Q67.55-27.05 69.25-27.05L69.25-27.05Q72.65-27.05 74.65-24.98 76.65-22.9 76.65-19.35L76.65-19.35 76.65-3.75 81.15-1.95ZM111.05-6.9L102.2 0.1Q100.2 0.5 97.4 0.5L97.4 0.5Q94.1 0.5 91.47-1.23 88.85-2.95 87.37-5.9 85.9-8.85 85.9-12.4L85.9-12.4Q85.9-16.25 88.25-19.63 90.6-23 94.12-25.03 97.65-27.05 100.95-27.05L100.95-27.05Q105.7-27.05 108.32-23.3 110.95-19.55 110.95-13.4L110.95-13.4 92.45-13.4Q92.75-9.15 94.77-6.45 96.8-3.75 100.3-3.75L100.3-3.75Q103.55-3.75 109.55-8.8L109.55-8.8 111.05-6.9ZM98.05-22.85Q92.65-22.85 92.4-15.45L92.4-15.45 104.1-15.45Q103.65-18.15 103.17-19.58 102.7-21 101.52-21.93 100.35-22.85 98.05-22.85L98.05-22.85ZM150.39-19.15Q153.79-19.15 155.77-21 157.74-22.85 157.74-26.1L157.74-26.1Q157.74-30.7 155.42-33.63 153.09-36.55 148.64-36.55L148.64-36.55Q145.24-36.55 142.44-34.6L142.44-34.6 142.44-4.1 150.19-1.95 149.19 0.05 131.49 0.05 131.49-1.5 136.19-5.2 136.19-35.6 130.99-37.3 131.99-39.3 137.79-39.3Q142.64-39.3 147.34-39.6L147.34-39.6Q150.84-39.8 152.49-39.8L152.49-39.8Q155.99-39.8 158.72-38.33 161.44-36.85 162.94-34.25 164.44-31.65 164.44-28.5L164.44-28.5Q164.44-25 161.89-21.9 159.34-18.8 155.39-17.05 151.44-15.3 147.64-15.5L147.64-15.5 145.29-17.2 146.29-19.2 150.34-19.2 150.39-19.15ZM184.14-2L183.14 0 169.19 0 169.19-1.55 173.64-5.05 173.64-35.8 169.19-38.9 169.19-40.45 177.74-43.65 179.64-43.65 179.64-3.75 184.14-2ZM215.69-2L214.69 0 205.19 0 205.19-4.35 199.53 0.1Q198.53 0.5 197.03 0.5L197.03 0.5Q192.73 0.5 190.81-1.65 188.88-3.8 188.88-6.8L188.88-6.8Q188.88-8.6 190.19-10.35 191.48-12.1 193.88-13.65L193.88-13.65 205.19-13.65 205.19-16.85Q205.19-20.1 203.46-21.45 201.73-22.8 198.73-22.8L198.73-22.8Q195.63-22.8 191.13-19.05L191.13-19.05 189.63-20.95 196.83-26.65Q198.83-27.05 201.63-27.05L201.63-27.05Q206.19-27.05 208.69-24.83 211.19-22.6 211.19-18.35L211.19-18.35 211.19-3.75 215.69-2ZM198.63-3.75Q201.69-3.75 205.19-6.55L205.19-6.55 205.19-11.6 196.33-11.6Q195.69-10.8 195.41-10 195.13-9.2 195.13-8.25L195.13-8.25Q195.13-6.4 196.08-5.08 197.03-3.75 198.63-3.75L198.63-3.75ZM238.98-3.9L233.93 0.1Q232.78 0.5 231.13 0.5L231.13 0.5Q226.98 0.5 225.06-1.68 223.13-3.85 223.13-8.4L223.13-8.4 223.13-23 217.73-23 217.73-25.05 227.23-36.1 229.13-36.1 229.13-25.05 238.13-25.05 238.13-23 229.13-23 229.13-7.8Q229.13-3.75 233.03-3.75L233.03-3.75Q234.08-3.75 235.06-4.2 236.03-4.65 237.48-5.8L237.48-5.8 238.98-3.9ZM260.48-44.15Q261.88-44.15 263.66-43.88 265.43-43.6 266.18-43.3L266.18-43.3 266.18-35.6 264.28-35.6Q263.03-37.6 261.23-38.78 259.43-39.95 257.58-39.95L257.58-39.95Q255.28-39.95 254.11-37.9 252.93-35.85 252.93-31.9L252.93-31.9 252.93-25.05 261.93-25.05 261.93-23 252.93-23 252.93-4.15 259.93-2 258.93 0 242.48 0 242.48-1.55 246.93-5.05 246.93-23 240.98-23 240.98-25.05 246.93-25.05 246.93-29.5Q246.93-33.35 249.03-36.75 251.13-40.15 254.31-42.15 257.48-44.15 260.48-44.15L260.48-44.15ZM279.73-27.05Q283.03-27.05 285.65-25.33 288.28-23.6 289.75-20.65 291.23-17.7 291.23-14.15L291.23-14.15Q291.23-10.3 288.88-6.93 286.53-3.55 283-1.53 279.48 0.5 276.18 0.5L276.18 0.5Q272.88 0.5 270.25-1.23 267.63-2.95 266.15-5.9 264.68-8.85 264.68-12.4L264.68-12.4Q264.68-16.25 267.03-19.63 269.38-23 272.9-25.03 276.43-27.05 279.73-27.05L279.73-27.05ZM276.83-22.85Q271.18-22.85 271.18-14.8L271.18-14.8Q271.18-10.05 273.23-6.88 275.28-3.7 279.08-3.7L279.08-3.7Q284.73-3.7 284.73-11.8L284.73-11.8Q284.73-16.5 282.68-19.68 280.63-22.85 276.83-22.85L276.83-22.85ZM315.53-27Q317.18-27 318.43-26.1 319.68-25.2 320.38-23.6L320.38-23.6 317.08-19.45 315.18-19.45Q314.98-20.7 314.45-21.23 313.93-21.75 313.03-21.75L313.03-21.75Q311.93-21.75 310.7-21.18 309.48-20.6 307.93-19L307.93-19 307.93-4.1 314.93-1.95 313.93 0.05 297.48 0.05 297.48-1.5 301.93-5 301.93-19.15 297.48-21.75 297.48-23.3 306.03-27.5 307.58-21.35 312.78-26.65Q313.83-27.05 315.53-27.05L315.53-27.05 315.53-27ZM371.42-2L370.42 0 360.92 0 360.92-16.85Q360.92-19.6 360.07-20.7 359.22-21.8 357.02-21.8L357.02-21.8Q355.47-21.8 353.97-21.23 352.47-20.65 350.42-18.95L350.42-18.95 350.42-3.75 354.92-2 353.92 0 344.42 0 344.42-16.85Q344.42-19.6 343.57-20.7 342.72-21.8 340.52-21.8L340.52-21.8Q338.97-21.8 337.47-21.23 335.97-20.65 333.92-18.95L333.92-18.95 333.92-3.75 338.42-2 337.42 0 323.47 0 323.47-1.55 327.92-5.05 327.92-19.2 323.47-21.8 323.47-23.35 332.02-27.55 333.62-21.15 340.27-26.7Q341.32-27.1 343.02-27.1L343.02-27.1Q345.92-27.1 347.82-25.53 349.72-23.95 350.22-21.2L350.22-21.2 356.72-26.65Q357.77-27.05 359.47-27.05L359.47-27.05Q362.87-27.05 364.87-24.98 366.87-22.9 366.87-19.35L366.87-19.35 366.87-3.75 371.42-2ZM386.62 1.05L377.02 13.25 375.12 11.75Q377.67 8.7 378.77 6.48 379.87 4.25 380.07 1.5L380.07 1.5 376.17-0.8 376.17-2.35 384.72-6.55 386.62 1.05ZM430.06-40.3Q432.71-40.3 436.19-39.55 439.67-38.8 441.26-37.95L441.26-37.95 441.26-28.25 439.37-28.25Q434.76-36.1 427.17-36.1L427.17-36.1Q423.87-36.1 421.14-34.18 418.42-32.25 416.87-28.83 415.31-25.4 415.31-21.15L415.31-21.15Q415.31-16.25 416.84-12.2 418.37-8.15 421.49-5.7 424.62-3.25 429.21-3.25L429.21-3.25Q433.46-3.25 441.42-9.65L441.42-9.65 442.92-7.25 433.71-0.1Q431.87 0.55 430.14 0.78 428.42 1 426.42 1L426.42 1Q421.17 1 417.12-1.55 413.06-4.1 410.81-8.58 408.56-13.05 408.56-18.75L408.56-18.75Q408.56-24.6 411.96-29.58 415.37-34.55 420.42-37.43 425.46-40.3 430.06-40.3L430.06-40.3ZM464.61-27.05Q467.91-27.05 470.54-25.33 473.16-23.6 474.64-20.65 476.11-17.7 476.11-14.15L476.11-14.15Q476.11-10.3 473.76-6.93 471.41-3.55 467.89-1.53 464.36 0.5 461.06 0.5L461.06 0.5Q457.76 0.5 455.14-1.23 452.51-2.95 451.04-5.9 449.56-8.85 449.56-12.4L449.56-12.4Q449.56-16.25 451.91-19.63 454.26-23 457.79-25.03 461.31-27.05 464.61-27.05L464.61-27.05ZM461.71-22.85Q456.06-22.85 456.06-14.8L456.06-14.8Q456.06-10.05 458.11-6.88 460.16-3.7 463.96-3.7L463.96-3.7Q469.61-3.7 469.61-11.8L469.61-11.8Q469.61-16.5 467.56-19.68 465.51-22.85 461.71-22.85L461.71-22.85ZM511.81-2L510.81 0 501.31 0 501.31-5.2 494.96 0.1Q493.91 0.5 492.21 0.5L492.21 0.5Q488.81 0.5 486.81-1.58 484.81-3.65 484.81-7.2L484.81-7.2 484.81-19.15 480.36-21.75 480.36-23.3 488.91-27.5 490.81-27.5 490.81-9.7Q490.81-6.95 491.66-5.85 492.51-4.75 494.71-4.75L494.71-4.75Q496.26-4.75 497.76-5.33 499.26-5.9 501.31-7.6L501.31-7.6 501.31-19.15 496.86-21.75 496.86-23.3 505.41-27.5 507.31-27.5 507.31-3.75 511.81-2ZM548.26-1.95L547.26 0.05 537.76 0.05 537.76-16.8Q537.76-19.55 536.91-20.65 536.06-21.75 533.86-21.75L533.86-21.75Q532.21-21.75 530.58-21.15 528.96-20.55 526.76-18.85L526.76-18.85 526.76-3.7 531.26-1.95 530.26 0.05 516.31 0.05 516.31-1.5 520.76-5 520.76-19.15 516.31-21.75 516.31-23.3 524.86-27.5 526.51-21 533.61-26.65Q534.66-27.05 536.36-27.05L536.36-27.05Q539.76-27.05 541.76-24.98 543.76-22.9 543.76-19.35L543.76-19.35 543.76-3.75 548.26-1.95ZM571.55-3.9L566.5 0.1Q565.36 0.5 563.71 0.5L563.71 0.5Q559.55 0.5 557.63-1.68 555.71-3.85 555.71-8.4L555.71-8.4 555.71-23 550.3-23 550.3-25.05 559.8-36.1 561.71-36.1 561.71-25.05 570.71-25.05 570.71-23 561.71-23 561.71-7.8Q561.71-3.75 565.61-3.75L565.61-3.75Q566.65-3.75 567.63-4.2 568.61-4.65 570.05-5.8L570.05-5.8 571.55-3.9ZM589-2L588 0 574.05 0 574.05-1.55 578.5-5.05 578.5-35.8 574.05-38.9 574.05-40.45 582.6-43.65 584.5-43.65 584.5-3.75 589-2ZM619.4-6.9L610.55 0.1Q608.55 0.5 605.75 0.5L605.75 0.5Q602.45 0.5 599.82-1.23 597.2-2.95 595.72-5.9 594.25-8.85 594.25-12.4L594.25-12.4Q594.25-16.25 596.6-19.63 598.95-23 602.47-25.03 606-27.05 609.3-27.05L609.3-27.05Q614.05-27.05 616.67-23.3 619.3-19.55 619.3-13.4L619.3-13.4 600.8-13.4Q601.1-9.15 603.12-6.45 605.15-3.75 608.65-3.75L608.65-3.75Q611.9-3.75 617.9-8.8L617.9-8.8 619.4-6.9ZM606.4-22.85Q601-22.85 600.75-15.45L600.75-15.45 612.45-15.45Q612-18.15 611.52-19.58 611.05-21 609.87-21.93 608.7-22.85 606.4-22.85L606.4-22.85ZM641.75-5.4Q641.75-6.8 640.2-7.98 638.65-9.15 635.45-10.8L635.45-10.8Q632.85-12.15 631.25-13.15 629.65-14.15 628.52-15.48 627.4-16.8 627.4-18.35L627.4-18.35Q627.4-20.15 628.9-22.2 630.4-24.25 632.6-25.65 634.8-27.05 636.7-27.05L636.7-27.05Q639-27.05 642.02-26.48 645.05-25.9 646.4-25.2L646.4-25.2 646.4-17.5 644.5-17.5Q642.9-20.6 640.8-22.33 638.7-24.05 636.5-24.05L636.5-24.05Q634.95-24.05 634-23.23 633.05-22.4 633.05-21.15L633.05-21.15Q633.05-19.6 634.67-18.38 636.3-17.15 639.6-15.5L639.6-15.5Q642.15-14.2 643.7-13.25 645.25-12.3 646.32-11.03 647.4-9.75 647.4-8.2L647.4-8.2Q647.4-6.35 645.82-4.33 644.25-2.3 641.97-0.9 639.7 0.5 637.8 0.5L637.8 0.5Q635.35 0.5 631.97-0.08 628.6-0.65 627.15-1.35L627.15-1.35 627.15-9.05 629.05-9.05Q630.8-5.95 633.2-4.23 635.6-2.5 638.05-2.5L638.05-2.5Q639.7-2.5 640.72-3.35 641.75-4.2 641.75-5.4L641.75-5.4ZM669.69-5.4Q669.69-6.8 668.14-7.98 666.59-9.15 663.39-10.8L663.39-10.8Q660.79-12.15 659.19-13.15 657.59-14.15 656.47-15.48 655.34-16.8 655.34-18.35L655.34-18.35Q655.34-20.15 656.84-22.2 658.34-24.25 660.54-25.65 662.74-27.05 664.64-27.05L664.64-27.05Q666.94-27.05 669.97-26.48 672.99-25.9 674.34-25.2L674.34-25.2 674.34-17.5 672.44-17.5Q670.84-20.6 668.74-22.33 666.64-24.05 664.44-24.05L664.44-24.05Q662.89-24.05 661.94-23.23 660.99-22.4 660.99-21.15L660.99-21.15Q660.99-19.6 662.62-18.38 664.24-17.15 667.54-15.5L667.54-15.5Q670.09-14.2 671.64-13.25 673.19-12.3 674.27-11.03 675.34-9.75 675.34-8.2L675.34-8.2Q675.34-6.35 673.77-4.33 672.19-2.3 669.92-0.9 667.64 0.5 665.74 0.5L665.74 0.5Q663.29 0.5 659.92-0.08 656.54-0.65 655.09-1.35L655.09-1.35 655.09-9.05 656.99-9.05Q658.74-5.95 661.14-4.23 663.54-2.5 665.99-2.5L665.99-2.5Q667.64-2.5 668.67-3.35 669.69-4.2 669.69-5.4L669.69-5.4ZM717.74-40.3Q720.39-40.3 723.86-39.55 727.34-38.8 728.94-37.95L728.94-37.95 728.94-28.25 727.04-28.25Q722.44-36.1 714.84-36.1L714.84-36.1Q711.54-36.1 708.81-34.18 706.09-32.25 704.54-28.83 702.99-25.4 702.99-21.15L702.99-21.15Q702.99-16.25 704.51-12.2 706.04-8.15 709.16-5.7 712.29-3.25 716.89-3.25L716.89-3.25Q721.14-3.25 729.09-9.65L729.09-9.65 730.59-7.25 721.39-0.1Q719.54 0.55 717.81 0.78 716.09 1 714.09 1L714.09 1Q708.84 1 704.79-1.55 700.74-4.1 698.49-8.58 696.24-13.05 696.24-18.75L696.24-18.75Q696.24-24.6 699.64-29.58 703.04-34.55 708.09-37.43 713.14-40.3 717.74-40.3L717.74-40.3ZM752.29-27.05Q755.59-27.05 758.21-25.33 760.84-23.6 762.31-20.65 763.79-17.7 763.79-14.15L763.79-14.15Q763.79-10.3 761.44-6.93 759.09-3.55 755.56-1.53 752.04 0.5 748.74 0.5L748.74 0.5Q745.44 0.5 742.81-1.23 740.19-2.95 738.71-5.9 737.24-8.85 737.24-12.4L737.24-12.4Q737.24-16.25 739.59-19.63 741.94-23 745.46-25.03 748.99-27.05 752.29-27.05L752.29-27.05ZM749.39-22.85Q743.74-22.85 743.74-14.8L743.74-14.8Q743.74-10.05 745.79-6.88 747.84-3.7 751.64-3.7L751.64-3.7Q757.29-3.7 757.29-11.8L757.29-11.8Q757.29-16.5 755.24-19.68 753.19-22.85 749.39-22.85L749.39-22.85ZM818.03-2L817.03 0 807.53 0 807.53-16.85Q807.53-19.6 806.68-20.7 805.83-21.8 803.63-21.8L803.63-21.8Q802.08-21.8 800.58-21.23 799.08-20.65 797.03-18.95L797.03-18.95 797.03-3.75 801.53-2 800.53 0 791.03 0 791.03-16.85Q791.03-19.6 790.18-20.7 789.33-21.8 787.13-21.8L787.13-21.8Q785.58-21.8 784.08-21.23 782.58-20.65 780.53-18.95L780.53-18.95 780.53-3.75 785.03-2 784.03 0 770.08 0 770.08-1.55 774.53-5.05 774.53-19.2 770.08-21.8 770.08-23.35 778.63-27.55 780.23-21.15 786.88-26.7Q787.93-27.1 789.63-27.1L789.63-27.1Q792.53-27.1 794.43-25.53 796.33-23.95 796.83-21.2L796.83-21.2 803.33-26.65Q804.38-27.05 806.08-27.05L806.08-27.05Q809.48-27.05 811.48-24.98 813.48-22.9 813.48-19.35L813.48-19.35 813.48-3.75 818.03-2ZM869.98-2L868.98 0 859.48 0 859.48-16.85Q859.48-19.6 858.63-20.7 857.78-21.8 855.58-21.8L855.58-21.8Q854.03-21.8 852.53-21.23 851.03-20.65 848.98-18.95L848.98-18.95 848.98-3.75 853.48-2 852.48 0 842.98 0 842.98-16.85Q842.98-19.6 842.13-20.7 841.28-21.8 839.08-21.8L839.08-21.8Q837.53-21.8 836.03-21.23 834.53-20.65 832.48-18.95L832.48-18.95 832.48-3.75 836.98-2 835.98 0 822.03 0 822.03-1.55 826.48-5.05 826.48-19.2 822.03-21.8 822.03-23.35 830.58-27.55 832.18-21.15 838.83-26.7Q839.88-27.1 841.58-27.1L841.58-27.1Q844.48-27.1 846.38-25.53 848.28-23.95 848.78-21.2L848.78-21.2 855.28-26.65Q856.33-27.05 858.03-27.05L858.03-27.05Q861.43-27.05 863.43-24.98 865.43-22.9 865.43-19.35L865.43-19.35 865.43-3.75 869.98-2ZM904.38-2L903.38 0 893.88 0 893.88-5.2 887.53 0.1Q886.48 0.5 884.78 0.5L884.78 0.5Q881.38 0.5 879.38-1.58 877.38-3.65 877.38-7.2L877.38-7.2 877.38-19.15 872.93-21.75 872.93-23.3 881.48-27.5 883.38-27.5 883.38-9.7Q883.38-6.95 884.23-5.85 885.08-4.75 887.28-4.75L887.28-4.75Q888.83-4.75 890.33-5.33 891.83-5.9 893.88-7.6L893.88-7.6 893.88-19.15 889.43-21.75 889.43-23.3 897.98-27.5 899.88-27.5 899.88-3.75 904.38-2ZM940.83-1.95L939.83 0.05 930.33 0.05 930.33-16.8Q930.33-19.55 929.48-20.65 928.63-21.75 926.43-21.75L926.43-21.75Q924.78-21.75 923.15-21.15 921.53-20.55 919.33-18.85L919.33-18.85 919.33-3.7 923.83-1.95 922.83 0.05 908.88 0.05 908.88-1.5 913.33-5 913.33-19.15 908.88-21.75 908.88-23.3 917.43-27.5 919.08-21 926.18-26.65Q927.23-27.05 928.93-27.05L928.93-27.05Q932.33-27.05 934.33-24.98 936.33-22.9 936.33-19.35L936.33-19.35 936.33-3.75 940.83-1.95ZM959.77-2L958.77 0 944.82 0 944.82-1.55 949.27-5.05 949.27-19.65 944.82-22.75 944.82-24.3 953.37-27.5 955.27-27.5 955.27-3.75 959.77-2ZM952.07-42.5Q953.57-42.5 954.55-41.4 955.52-40.3 955.52-38.65L955.52-38.65Q955.52-37.5 954.82-36.48 954.12-35.45 953.07-34.85 952.02-34.25 951.02-34.25L951.02-34.25Q949.52-34.25 948.55-35.35 947.57-36.45 947.57-38.1L947.57-38.1Q947.57-39.25 948.27-40.28 948.97-41.3 950.02-41.9 951.07-42.5 952.07-42.5L952.07-42.5ZM983.57-3.9L978.52 0.1Q977.37 0.5 975.72 0.5L975.72 0.5Q971.57 0.5 969.65-1.68 967.72-3.85 967.72-8.4L967.72-8.4 967.72-23 962.32-23 962.32-25.05 971.82-36.1 973.72-36.1 973.72-25.05 982.72-25.05 982.72-23 973.72-23 973.72-7.8Q973.72-3.75 977.62-3.75L977.62-3.75Q978.67-3.75 979.65-4.2 980.62-4.65 982.07-5.8L982.07-5.8 983.57-3.9ZM1002.02-2L1001.02 0 987.07 0 987.07-1.55 991.52-5.05 991.52-19.65 987.07-22.75 987.07-24.3 995.62-27.5 997.52-27.5 997.52-3.75 1002.02-2ZM994.32-42.5Q995.82-42.5 996.79-41.4 997.77-40.3 997.77-38.65L997.77-38.65Q997.77-37.5 997.07-36.48 996.37-35.45 995.32-34.85 994.27-34.25 993.27-34.25L993.27-34.25Q991.77-34.25 990.79-35.35 989.82-36.45 989.82-38.1L989.82-38.1Q989.82-39.25 990.52-40.28 991.22-41.3 992.27-41.9 993.32-42.5 994.32-42.5L994.32-42.5ZM1032.42-6.9L1023.57 0.1Q1021.57 0.5 1018.77 0.5L1018.77 0.5Q1015.47 0.5 1012.84-1.23 1010.22-2.95 1008.74-5.9 1007.27-8.85 1007.27-12.4L1007.27-12.4Q1007.27-16.25 1009.62-19.63 1011.97-23 1015.49-25.03 1019.02-27.05 1022.32-27.05L1022.32-27.05Q1027.07-27.05 1029.69-23.3 1032.32-19.55 1032.32-13.4L1032.32-13.4 1013.82-13.4Q1014.12-9.15 1016.14-6.45 1018.17-3.75 1021.67-3.75L1021.67-3.75Q1024.92-3.75 1030.92-8.8L1030.92-8.8 1032.42-6.9ZM1019.42-22.85Q1014.02-22.85 1013.77-15.45L1013.77-15.45 1025.47-15.45Q1025.02-18.15 1024.54-19.58 1024.07-21 1022.89-21.93 1021.72-22.85 1019.42-22.85L1019.42-22.85ZM1054.76-5.4Q1054.76-6.8 1053.21-7.98 1051.66-9.15 1048.46-10.8L1048.46-10.8Q1045.86-12.15 1044.26-13.15 1042.66-14.15 1041.54-15.48 1040.41-16.8 1040.41-18.35L1040.41-18.35Q1040.41-20.15 1041.91-22.2 1043.41-24.25 1045.61-25.65 1047.81-27.05 1049.71-27.05L1049.71-27.05Q1052.01-27.05 1055.04-26.48 1058.06-25.9 1059.41-25.2L1059.41-25.2 1059.41-17.5 1057.51-17.5Q1055.91-20.6 1053.81-22.33 1051.71-24.05 1049.51-24.05L1049.51-24.05Q1047.96-24.05 1047.01-23.23 1046.06-22.4 1046.06-21.15L1046.06-21.15Q1046.06-19.6 1047.69-18.38 1049.31-17.15 1052.61-15.5L1052.61-15.5Q1055.16-14.2 1056.71-13.25 1058.26-12.3 1059.34-11.03 1060.41-9.75 1060.41-8.2L1060.41-8.2Q1060.41-6.35 1058.84-4.33 1057.26-2.3 1054.99-0.9 1052.71 0.5 1050.81 0.5L1050.81 0.5Q1048.36 0.5 1044.99-0.08 1041.61-0.65 1040.16-1.35L1040.16-1.35 1040.16-9.05 1042.06-9.05Q1043.81-5.95 1046.21-4.23 1048.61-2.5 1051.06-2.5L1051.06-2.5Q1052.71-2.5 1053.74-3.35 1054.76-4.2 1054.76-5.4L1054.76-5.4Z" opacity="1" transform="matrix(1,0,0,1,0,0)" fill="#81ffd9" class="slogan-text-1" data-fill-palette-color="secondary" id="text-1"></path></svg></g></svg></g></svg></g></svg></g><g transform="matrix(1,0,0,1,75.54432,0)"><svg viewBox="0 0 244.43135999999998 244.43135999999998" height="244.43135999999998" width="244.43135999999998"><g><svg viewBox="0 0 244.43135999999998 244.43135999999998" height="244.43135999999998" width="244.43135999999998"><g transform="matrix(1,0,0,1,78.35822806297205,64.60265593644992)"><svg viewBox="0 0 87.71490387405589 115.22604812710014" height="115.22604812710014" width="87.71490387405589"><g><svg xmlns="http://www.w3.org/2000/svg" xmlns:xlink="http://www.w3.org/1999/xlink" version="1.1" x="0" y="0" viewBox="14.5 3.3 71.1 93.39999999999999" enable-background="new 0 0 100 100" xml:space="preserve" height="115.22604812710014" width="87.71490387405589" class="icon-z$-0" data-fill-palette-color="accent" id="z$-0"><path d="M18.7 35.7H33c1.2 0 2.1 1 2.1 2.1s-1 2.1-2.1 2.1H18.7l0 17.6v22.7l31.2 0c0 0 0 0 0.1 0 0 0 0 0 0.1 0l31.2 0 0-40.3-14.2 0c-1.2 0-2.1-1-2.1-2.1s1-2.1 2.1-2.1h14.3c2.3 0 4.2 1.9 4.2 4.2v40.3c0 2.3-1.9 4.2-4.2 4.2H52.1v8.1h12.2c1.2 0 2.1 1 2.1 2.1s-1 2.1-2.1 2.1H35.7c-1.2 0-2.1-1-2.1-2.1s1-2.1 2.1-2.1h12.2v-8.1H18.7c-2.3 0-4.2-1.9-4.2-4.2V39.9C14.5 37.6 16.4 35.7 18.7 35.7zM48.5 70c0.4 0.4 0.9 0.6 1.5 0.6 0.6 0 1.1-0.2 1.5-0.6 0.4-0.4 0.6-0.9 0.6-1.5 0-0.6-0.2-1.1-0.6-1.5-0.4-0.4-0.9-0.6-1.5-0.6-0.6 0-1.1 0.2-1.5 0.6-0.4 0.4-0.6 0.9-0.6 1.5C47.9 69.1 48.1 69.6 48.5 70zM50 39.4c1.2 0 2.1-0.9 2.1-2.1 0-1.2-0.9-2.1-2.1-2.1-1.2 0-2.1 0.9-2.1 2.1C47.9 38.5 48.8 39.4 50 39.4zM50 62.8c1.2 0 2.1-0.9 2.1-2.1 0-1.2-0.9-2.1-2.1-2.1-1.2 0-2.1 0.9-2.1 2.1C47.9 61.9 48.8 62.8 50 62.8zM50 31.6c1.2 0 2.1-1 2.1-2.1 0-1.2-0.9-2.1-2.1-2.1-1.2 0-2.1 0.9-2.1 2.1C47.9 30.6 48.8 31.6 50 31.6zM50 55c1.2 0 2.1-1 2.1-2.1 0-1.2-0.9-2.1-2.1-2.1-1.2 0-2.1 0.9-2.1 2.1C47.9 54.1 48.8 55 50 55zM50 47.2c1.2 0 2.1-1 2.1-2.1 0-1.2-0.9-2.1-2.1-2.1-1.2 0-2.1 0.9-2.1 2.1C47.9 46.3 48.8 47.2 50 47.2zM51.5 20.2c-0.4-0.4-0.9-0.6-1.5-0.6-0.6 0-1.1 0.2-1.5 0.6-0.4 0.4-0.6 0.9-0.6 1.5 0 0.6 0.2 1.1 0.6 1.5 0.4 0.4 0.9 0.6 1.5 0.6 0.6 0 1.1-0.2 1.5-0.6 0.4-0.4 0.6-0.9 0.6-1.5C52.1 21.1 51.9 20.6 51.5 20.2zM50 16C50 16 50 16 50 16l-0.2 0c-1.7 0-3.3-0.7-4.4-2-1.2-1.2-1.8-2.8-1.8-4.5 0.1-3.4 2.9-6.2 6.4-6.2l0.2 0c1.7 0 3.3 0.7 4.4 2s1.8 2.8 1.8 4.5C56.3 13.2 53.4 16 50 16zM52.1 9.7c0-0.6-0.2-1.1-0.6-1.5s-0.9-0.6-1.5-0.7l-0.1 0c-1.1 0-2.1 0.9-2.1 2.1 0 0.6 0.2 1.1 0.6 1.5 0.4 0.4 0.9 0.6 1.5 0.7l0.1 0C51.1 11.8 52.1 10.8 52.1 9.7zM59.4 60.8c-1.2 0-2.1-1-2.1-2.1V25.9c0-3.8 3.1-6.9 6.9-6.9h4.8c0.9-2.5 3.2-4.2 6-4.2 3.5 0 6.4 2.9 6.4 6.4s-2.9 6.4-6.4 6.4c-2.8 0-5.1-1.8-6-4.2h-4.8c-1.4 0-2.6 1.2-2.6 2.6v32.7C61.5 59.8 60.5 60.8 59.4 60.8zM72.8 21.2c0 1.2 0.9 2.1 2.1 2.1 1.2 0 2.1-0.9 2.1-2.1S76.1 19 74.9 19C73.7 19 72.8 20 72.8 21.2zM25.1 14.8c2.8 0 5.1 1.8 6 4.2h4.8c3.8 0 6.9 3.1 6.9 6.9v32.7c0 1.2-1 2.1-2.1 2.1-1.2 0-2.1-1-2.1-2.1V25.9c0-1.5-1.2-2.6-2.6-2.6h-4.8c-0.9 2.5-3.2 4.2-6 4.2-3.5 0-6.4-2.9-6.4-6.4S21.6 14.8 25.1 14.8zM23 21.2c0 1.2 0.9 2.1 2.1 2.1s2.1-0.9 2.1-2.1S26.3 19 25.1 19 23 20 23 21.2z" fill="#81ffd9" data-fill-palette-color="accent"></path></svg></g></svg></g><g><path d="M9.06 86.928c-0.332 1.064-0.356 2.097-0.072 3.101 0.276 1.008 0.824 1.9 1.643 2.677 0.82 0.777 1.832 1.353 3.037 1.729v0c1.173 0.366 2.289 0.476 3.347 0.329 1.053-0.149 1.956-0.532 2.712-1.147 0.753-0.609 1.284-1.407 1.592-2.394v0c0.32-1.025 0.329-1.997 0.025-2.915-0.302-0.924-0.888-1.727-1.76-2.407v0l-0.271-0.211-0.094 0.097 0.258 0.355c0.45 0.654 0.734 1.299 0.852 1.934 0.116 0.641 0.067 1.305-0.147 1.99v0c-0.397 1.269-1.147 2.107-2.252 2.515-1.112 0.405-2.475 0.356-4.09-0.149v0c-1.083-0.338-2.004-0.791-2.762-1.359-0.763-0.576-1.3-1.208-1.613-1.897-0.317-0.697-0.371-1.379-0.162-2.045v0c0.174-0.558 0.444-0.892 0.809-1.003 0.359-0.113 0.847-0.143 1.464-0.091v0c0.542 0.043 0.951 0.03 1.225-0.04 0.273-0.062 0.467-0.28 0.584-0.651v0c0.1-0.32 0.083-0.604-0.052-0.849-0.141-0.248-0.368-0.421-0.681-0.519v0c-0.686-0.214-1.375-0.036-2.067 0.535-0.692 0.572-1.2 1.376-1.525 2.415z" fill="#81ffd9" data-fill-palette-color="accent"></path><path d="M17.091 68.287c0.521-1.001 1.228-1.764 2.123-2.29 0.885-0.523 1.879-0.774 2.98-0.754 1.093 0.024 2.202 0.328 3.328 0.915v0c1.12 0.583 2.006 1.316 2.658 2.201 0.643 0.887 1.008 1.845 1.093 2.873 0.076 1.031-0.146 2.047-0.666 3.048v0c-0.524 1.007-1.228 1.771-2.114 2.295-0.894 0.526-1.888 0.777-2.981 0.753-1.102-0.021-2.213-0.323-3.332-0.905v0c-1.126-0.586-2.01-1.322-2.654-2.21-0.652-0.884-1.017-1.842-1.093-2.873-0.085-1.028 0.134-2.046 0.658-3.053zM21.179 74.502c1.727 0.899 3.222 1.314 4.485 1.244 1.265-0.061 2.16-0.594 2.684-1.601v0c0.521-1.001 0.444-2.039-0.229-3.116-0.667-1.074-1.865-2.06-3.592-2.959v0c-1.733-0.902-3.231-1.318-4.493-1.249-1.268 0.067-2.163 0.6-2.684 1.601v0c-0.524 1.007-0.448 2.045 0.229 3.116 0.667 1.074 1.868 2.062 3.6 2.964z" fill="#81ffd9" data-fill-palette-color="accent"></path><path d="M45.442 49.815l1.341-1.243 0.177 0.149-3.526 4.219-0.178-0.148 0.965-1.517-5.726-4.786c-0.582-0.487-1.028-0.833-1.337-1.038-0.309-0.206-0.592-0.355-0.848-0.446v0c-0.725-0.221-1.368 0.003-1.927 0.673v0c-0.603 0.721-0.779 1.602-0.529 2.642v0c0.526 0.396 1.148 0.894 1.864 1.492v0l5.726 4.786 1.34-1.242 0.178 0.148-3.539 4.235-0.178-0.148 0.985-1.54-5.726-4.786c-0.582-0.487-1.028-0.833-1.337-1.039-0.309-0.206-0.592-0.355-0.848-0.446v0c-0.725-0.221-1.368 0.003-1.928 0.673v0c-0.59 0.706-0.779 1.554-0.566 2.546v0l7.628 6.375 1.321-1.219 0.177 0.148-3.487 4.173-0.178-0.148 0.952-1.501-7.851-6.562-1.606 0.916-0.154-0.13 1.237-3.271 0.155-0.185 1.507 1.259c-0.268-1.721-0.002-3.06 0.799-4.018v0c0.723-0.866 1.602-1.168 2.636-0.908v0c0.17 0.037 0.365 0.108 0.584 0.213v0c-0.273-1.777-0.016-3.137 0.772-4.081v0c0.723-0.866 1.604-1.171 2.642-0.915v0c0.277 0.056 0.606 0.218 0.987 0.483 0.376 0.262 0.966 0.729 1.77 1.401v0z" fill="#81ffd9" data-fill-palette-color="accent"></path><path d="M64.804 34.05l1.593-0.897 0.138 0.186-4.41 3.285-0.138-0.186 1.291-1.25-4.459-5.985c-0.453-0.608-0.806-1.049-1.059-1.32-0.253-0.272-0.493-0.482-0.722-0.631v0c-0.654-0.383-1.331-0.314-2.031 0.207v0c-0.754 0.562-1.13 1.378-1.127 2.448v0c0.42 0.508 0.909 1.136 1.466 1.884v0l4.459 5.984 1.592-0.897 0.139 0.185-4.426 3.298-0.138-0.186 1.315-1.269-4.459-5.984c-0.453-0.608-0.806-1.049-1.059-1.321-0.253-0.272-0.493-0.482-0.722-0.63v0c-0.654-0.383-1.331-0.314-2.031 0.207v0c-0.738 0.55-1.118 1.331-1.141 2.345v0l5.939 7.971 1.568-0.879 0.139 0.185-4.361 3.25-0.139-0.186 1.275-1.239-6.114-8.205-1.774 0.518-0.12-0.161 1.963-2.895 0.193-0.144 1.174 1.575c0.138-1.736 0.708-2.977 1.709-3.723v0c0.905-0.674 1.829-0.764 2.775-0.272v0c0.157 0.076 0.33 0.19 0.519 0.342v0c0.147-1.792 0.713-3.055 1.697-3.789v0c0.905-0.674 1.832-0.766 2.783-0.278v0c0.256 0.119 0.539 0.352 0.848 0.7 0.305 0.342 0.771 0.933 1.396 1.773v0z" fill="#81ffd9" data-fill-palette-color="accent"></path><path d="M81.081 24.089l1.61-0.357 0.059 0.128-2.27 2.671-0.164 0.077-0.838-1.81-0.095 0.011c-0.435 1.792-1.253 2.966-2.454 3.522v0c-0.548 0.254-1.089 0.364-1.623 0.33-0.525-0.031-0.979-0.205-1.363-0.523v0c-0.235-0.172-0.463-0.448-0.682-0.828-0.217-0.388-0.554-1.076-1.011-2.062v0l-3.132-6.763-1.687 0.526-0.102-0.219 3.309-1.532 3.33 7.192c0.327 0.707 0.585 1.216 0.774 1.529 0.186 0.306 0.385 0.551 0.596 0.734v0c0.261 0.227 0.575 0.355 0.943 0.384 0.365 0.038 0.734-0.029 1.106-0.201v0c0.445-0.206 0.819-0.516 1.123-0.93 0.301-0.406 0.524-0.898 0.671-1.476v0l-4.067-8.783-1.697 0.53-0.101-0.219 3.317-1.536z" fill="#81ffd9" data-fill-palette-color="accent"></path><path d="M100.563 19.533l1.755-0.212 0.058 0.224-5.258 1.352-0.058-0.224 1.669-0.668-1.859-7.228c-0.189-0.735-0.349-1.276-0.479-1.624-0.131-0.348-0.284-0.631-0.458-0.849v0c-0.238-0.279-0.553-0.464-0.944-0.558-0.396-0.085-0.822-0.069-1.277 0.048v0c-0.962 0.247-1.716 0.875-2.262 1.881v0l2.461 9.569 1.784-0.22 0.057 0.225-5.286 1.359-0.058-0.224 1.669-0.669-2.513-9.773-1.839-0.193-0.05-0.195 2.916-1.925 0.234-0.06 0.459 1.785c0.872-1.597 1.968-2.565 3.288-2.905v0c0.585-0.15 1.152-0.158 1.7-0.021 0.546 0.13 0.977 0.376 1.292 0.739v0c0.198 0.205 0.369 0.519 0.512 0.939 0.148 0.413 0.357 1.146 0.628 2.199v0z" fill="#81ffd9" data-fill-palette-color="accent"></path><path d="M109.391 1.538c-0.039-0.401 0.059-0.748 0.293-1.041 0.235-0.286 0.557-0.449 0.965-0.488v0c0.408-0.04 0.754 0.058 1.04 0.293 0.287 0.242 0.45 0.563 0.489 0.964v0c0.04 0.408-0.058 0.758-0.292 1.051-0.235 0.286-0.557 0.449-0.964 0.488v0c-0.408 0.04-0.754-0.058-1.041-0.293-0.287-0.242-0.45-0.567-0.49-0.974zM113.484 17.653l-1.188-12.169-0.23 0.023-3.267 1.472 0.02 0.201 1.786 0.473 0.994 10.184-1.751 0.404 0.022 0.23 5.433-0.53-0.023-0.23z" fill="#81ffd9" data-fill-palette-color="accent"></path><path d="M123.751 18.873l8.182 0.327 0.226-0.626-8.181-0.327z" fill="#81ffd9" data-fill-palette-color="accent"></path><path d="M149.512 8.312c-1.089-0.237-2.121-0.17-3.095 0.202-0.98 0.364-1.82 0.988-2.521 1.872-0.701 0.885-1.187 1.944-1.456 3.177v0c-0.262 1.201-0.273 2.322-0.032 3.364 0.242 1.035 0.702 1.902 1.381 2.6 0.673 0.696 1.514 1.155 2.525 1.375v0c1.05 0.229 2.018 0.151 2.906-0.232 0.894-0.382 1.642-1.037 2.242-1.965v0l0.187-0.289-0.105-0.085-0.331 0.289c-0.612 0.506-1.229 0.845-1.851 1.019-0.629 0.172-1.294 0.182-1.996 0.029v0c-1.299-0.283-2.2-0.957-2.703-2.023-0.502-1.071-0.572-2.434-0.212-4.087v0c0.242-1.109 0.612-2.066 1.111-2.87 0.507-0.81 1.089-1.402 1.747-1.774 0.666-0.377 1.341-0.491 2.023-0.342v0c0.571 0.124 0.927 0.364 1.07 0.718 0.144 0.348 0.217 0.831 0.22 1.45v0c0.005 0.544 0.054 0.95 0.147 1.217 0.086 0.266 0.32 0.441 0.7 0.524v0c0.328 0.072 0.609 0.03 0.842-0.126 0.235-0.162 0.387-0.404 0.457-0.725v0c0.153-0.702-0.086-1.372-0.716-2.011-0.63-0.639-1.477-1.075-2.54-1.307z" fill="#81ffd9" data-fill-palette-color="accent"></path><path d="M168.789 14.673c1.042 0.431 1.865 1.069 2.468 1.914 0.599 0.836 0.936 1.804 1.012 2.903 0.072 1.091-0.134 2.222-0.619 3.395v0c-0.482 1.167-1.135 2.114-1.959 2.841-0.827 0.719-1.75 1.166-2.766 1.341-1.021 0.167-2.052 0.034-3.095-0.396v0c-1.049-0.433-1.872-1.068-2.471-1.904-0.603-0.845-0.94-1.813-1.013-2.903-0.076-1.099 0.127-2.232 0.61-3.399v0c0.485-1.173 1.141-2.119 1.968-2.837 0.824-0.727 1.746-1.175 2.767-1.342 1.017-0.175 2.05-0.046 3.098 0.387zM162.957 19.292c-0.744 1.799-1.026 3.325-0.846 4.576 0.171 1.255 0.781 2.099 1.831 2.533v0c1.042 0.431 2.071 0.264 3.084-0.501 1.011-0.759 1.889-2.038 2.632-3.838v0c0.746-1.806 1.029-3.334 0.85-4.586-0.178-1.258-0.788-2.102-1.83-2.533v0c-1.049-0.433-2.077-0.266-3.085 0.502-1.011 0.759-1.89 2.041-2.636 3.847z" fill="#81ffd9" data-fill-palette-color="accent"></path><path d="M185.369 37.947l1.336 1.158-0.128 0.193-4.531-2.989 0.127-0.194 1.616 0.789 4.11-6.23c0.418-0.633 0.712-1.115 0.881-1.445 0.17-0.33 0.277-0.634 0.323-0.91v0c0.047-0.363-0.027-0.721-0.221-1.074-0.203-0.351-0.5-0.656-0.892-0.915v0c-0.829-0.547-1.8-0.685-2.913-0.413v0l-5.441 8.247 1.36 1.175-0.127 0.193-4.557-3.006 0.128-0.193 1.616 0.788 5.557-8.423-1.091-1.492 0.111-0.168 3.384 0.869 0.202 0.133-1.015 1.538c1.769-0.426 3.222-0.263 4.36 0.488v0c0.504 0.333 0.89 0.748 1.157 1.246 0.271 0.492 0.377 0.977 0.319 1.454v0c-0.019 0.285-0.137 0.622-0.352 1.01-0.207 0.386-0.61 1.034-1.209 1.941v0z" fill="#81ffd9" data-fill-palette-color="accent"></path><path d="M200.157 51.013l1.099 1.384-0.161 0.167-3.904-3.772 0.161-0.166 1.443 1.071 5.185-5.367c0.527-0.546 0.904-0.965 1.132-1.259 0.228-0.294 0.389-0.572 0.484-0.835v0c0.113-0.349 0.106-0.714-0.019-1.096-0.135-0.382-0.371-0.737-0.709-1.064v0c-0.715-0.69-1.644-1.004-2.787-0.941v0l-6.865 7.106 1.122 1.405-0.161 0.167-3.926-3.793 0.16-0.167 1.444 1.072 7.011-7.258-0.798-1.667 0.14-0.145 3.166 1.477 0.174 0.168-1.28 1.325c1.817-0.093 3.216 0.334 4.196 1.281v0c0.435 0.42 0.737 0.899 0.908 1.437 0.175 0.534 0.191 1.029 0.047 1.488v0c-0.071 0.277-0.249 0.586-0.532 0.928-0.274 0.342-0.789 0.904-1.545 1.686v0z" fill="#81ffd9" data-fill-palette-color="accent"></path><path d="M214.177 64.703l0.439 0.005 0.022 0.134-0.332 0.091c-1.066 0.292-2.053 0.291-2.963-0.003-0.906-0.288-1.674-0.868-2.305-1.737v0c-0.619-0.853-0.949-1.771-0.99-2.754-0.035-0.986 0.207-1.95 0.728-2.891 0.52-0.941 1.291-1.782 2.313-2.524v0c1.027-0.745 2.087-1.211 3.179-1.397 1.088-0.192 2.117-0.084 3.085 0.325 0.97 0.4 1.792 1.064 2.466 1.994v0c0.804 1.109 1.09 2.195 0.858 3.259-0.223 1.065-0.953 2.06-2.191 2.983v0l-0.215-0.056-4.635-6.392c-0.437 0.267-0.772 0.485-1.006 0.655v0c-1.435 1.041-2.315 2.127-2.639 3.257-0.328 1.126-0.114 2.21 0.643 3.254v0c0.386 0.533 0.883 0.96 1.49 1.283 0.603 0.317 1.288 0.489 2.053 0.514zM219.375 55.882c-0.54-0.745-1.297-1.137-2.272-1.176-0.969-0.044-2.032 0.246-3.189 0.869v0l3.492 4.472c0.226-0.089 0.559-0.293 0.999-0.613v0c0.853-0.619 1.336-1.218 1.447-1.795 0.115-0.573-0.044-1.158-0.477-1.757z" fill="#81ffd9" data-fill-palette-color="accent"></path><path d="M230.177 73.862c-0.488-1.002-1.18-1.77-2.075-2.304-0.892-0.544-1.903-0.816-3.032-0.819-1.129-0.002-2.261 0.273-3.396 0.826v0c-1.104 0.538-1.991 1.225-2.66 2.058-0.663 0.831-1.058 1.73-1.185 2.696-0.13 0.96 0.032 1.904 0.485 2.833v0c0.471 0.966 1.132 1.678 1.983 2.137 0.854 0.465 1.831 0.646 2.931 0.543v0l0.343-0.032 0.001-0.135-0.432-0.081c-0.776-0.167-1.425-0.441-1.946-0.822-0.525-0.387-0.944-0.903-1.259-1.548v0c-0.583-1.195-0.612-2.32-0.088-3.375 0.53-1.058 1.556-1.957 3.077-2.699v0c1.02-0.497 2-0.8 2.941-0.907 0.95-0.105 1.775-0.014 2.475 0.273 0.709 0.289 1.216 0.748 1.522 1.376v0c0.256 0.525 0.289 0.953 0.1 1.284-0.183 0.328-0.517 0.685-1.002 1.071v0c-0.424 0.341-0.712 0.631-0.865 0.87-0.155 0.233-0.148 0.524 0.023 0.874v0c0.147 0.302 0.354 0.496 0.62 0.583 0.272 0.084 0.556 0.054 0.852-0.091v0c0.646-0.315 1.024-0.918 1.136-1.808 0.111-0.891-0.072-1.825-0.549-2.803z" fill="#81ffd9" data-fill-palette-color="accent"></path><path d="M238.738 89.121l-3.897-2.167-0.13 0.092 0.404 1.32-8.946 2.738c-0.578 0.177-1.024 0.384-1.338 0.621-0.314 0.236-0.534 0.55-0.66 0.939v0c-0.192 0.564-0.197 1.145-0.014 1.742v0c0.177 0.578 0.511 1.072 1.002 1.484 0.491 0.411 1.068 0.667 1.73 0.766v0l0.054-0.132c-0.436-0.232-0.771-0.466-1.005-0.704-0.241-0.235-0.406-0.501-0.497-0.796v0c-0.189-0.616-0.093-1.106 0.288-1.468v0c0.254-0.295 0.708-0.543 1.363-0.743v0l8.552-2.618 0.922 3.014 0.503 0.025-0.973-3.178 2.649-0.811z" fill="#81ffd9" data-fill-palette-color="accent"></path><path d="M20.495 158.281c-0.29-0.944-0.789-1.714-1.5-2.311-0.704-0.599-1.549-0.975-2.537-1.128-0.99-0.16-2.021-0.075-3.093 0.255v0c-1.04 0.319-1.911 0.797-2.615 1.434-0.695 0.642-1.165 1.376-1.41 2.203-0.245 0.827-0.233 1.677 0.035 2.549v0c0.278 0.905 0.761 1.621 1.449 2.147 0.686 0.52 1.516 0.809 2.489 0.869v0l0.303 0.023 0.015-0.121-0.357-0.132c-0.659-0.247-1.192-0.575-1.598-0.985-0.406-0.409-0.703-0.918-0.89-1.528v0c-0.345-1.123-0.213-2.112 0.396-2.966 0.6-0.859 1.619-1.508 3.057-1.95v0c0.963-0.296 1.865-0.422 2.707-0.378 0.84 0.037 1.549 0.23 2.127 0.58 0.578 0.349 0.957 0.819 1.139 1.41v0c0.152 0.494 0.125 0.875-0.082 1.141-0.208 0.261-0.551 0.527-1.029 0.801v0c-0.411 0.239-0.704 0.451-0.878 0.638-0.168 0.185-0.201 0.444-0.098 0.779v0c0.085 0.276 0.239 0.471 0.463 0.584 0.225 0.114 0.478 0.127 0.761 0.041v0c0.61-0.187 1.026-0.663 1.248-1.426 0.216-0.762 0.182-1.604-0.102-2.529z" fill="#81ffd9" data-fill-palette-color="accent"></path><path d="M27.674 175.168c0.458 0.889 0.651 1.791 0.578 2.705-0.076 0.908-0.402 1.756-0.977 2.544-0.579 0.782-1.367 1.43-2.363 1.943v0c-1.003 0.517-1.99 0.784-2.963 0.803-0.976 0.012-1.855-0.214-2.639-0.679-0.787-0.471-1.409-1.151-1.868-2.04v0c-0.462-0.895-0.656-1.8-0.583-2.714 0.076-0.908 0.402-1.756 0.978-2.543 0.579-0.782 1.37-1.431 2.372-1.949v0c0.997-0.514 1.981-0.78 2.954-0.797 0.976-0.012 1.855 0.214 2.639 0.679 0.787 0.471 1.411 1.154 1.872 2.048zM21.086 174.939c-1.54 0.794-2.608 1.666-3.207 2.616-0.598 0.95-0.666 1.873-0.204 2.769v0c0.458 0.889 1.248 1.366 2.369 1.43 1.121 0.064 2.451-0.301 3.991-1.095v0c1.534-0.791 2.6-1.661 3.197-2.611 0.598-0.95 0.668-1.87 0.209-2.76v0c-0.462-0.895-1.253-1.375-2.373-1.439-1.121-0.064-2.448 0.299-3.982 1.09z" fill="#81ffd9" data-fill-palette-color="accent"></path><path d="M35.932 205.44l0.87 1.372-0.164 0.134-3.099-3.762 0.163-0.135 1.161 1.093 5.1-4.201c0.523-0.431 0.901-0.764 1.134-0.999 0.228-0.24 0.402-0.462 0.522-0.665v0c0.315-0.599 0.226-1.199-0.27-1.801v0c-0.525-0.637-1.264-0.933-2.218-0.887v0c-0.43 0.397-0.966 0.861-1.608 1.39v0l-5.1 4.201 0.863 1.364-0.163 0.134-3.112-3.778 0.163-0.134 1.18 1.116 5.1-4.201c0.523-0.431 0.899-0.767 1.127-1.007 0.233-0.235 0.407-0.457 0.523-0.665v0c0.32-0.594 0.232-1.192-0.264-1.793v0c-0.517-0.627-1.225-0.927-2.124-0.899v0l-6.802 5.603 0.85 1.348-0.163 0.135-3.067-3.724 0.163-0.134 1.142 1.069 7.004-5.77-0.53-1.546 0.14-0.115 2.64 1.621 0.135 0.164-1.337 1.101c1.54 0.053 2.66 0.505 3.36 1.355v0c0.64 0.777 0.764 1.593 0.372 2.447v0c-0.062 0.147-0.156 0.307-0.283 0.481v0c1.593 0.054 2.735 0.5 3.427 1.34v0c0.636 0.772 0.76 1.588 0.371 2.447v0c-0.099 0.238-0.294 0.499-0.583 0.781-0.295 0.286-0.802 0.726-1.523 1.319v0z" fill="#81ffd9" data-fill-palette-color="accent"></path><path d="M56.358 222.912l1.158 1.139-0.129 0.168-3.872-2.961 0.128-0.168 1.379 0.8 4.013-5.248c0.412-0.539 0.704-0.949 0.878-1.231 0.168-0.286 0.287-0.541 0.357-0.766v0c0.171-0.655-0.052-1.219-0.671-1.692v0c-0.656-0.502-1.443-0.622-2.361-0.361v0c-0.328 0.484-0.745 1.057-1.251 1.719v0l-4.013 5.248 1.149 1.133-0.128 0.168-3.888-2.973 0.128-0.168 1.403 0.819 4.013-5.249c0.412-0.539 0.702-0.951 0.869-1.236 0.173-0.282 0.292-0.537 0.358-0.767v0c0.177-0.651-0.044-1.213-0.663-1.686v0c-0.645-0.493-1.403-0.625-2.273-0.394v0l-5.353 7.001 1.134 1.12-0.128 0.168-3.833-2.93 0.129-0.168 1.354 0.782 5.512-7.208-0.867-1.386 0.11-0.144 2.94 0.98 0.168 0.128-1.052 1.376c1.512-0.297 2.706-0.112 3.58 0.557v0c0.8 0.612 1.106 1.378 0.917 2.299v0c-0.027 0.157-0.082 0.334-0.166 0.533v0c1.563-0.309 2.777-0.133 3.641 0.527v0c0.795 0.608 1.101 1.374 0.918 2.299v0c-0.043 0.255-0.173 0.552-0.391 0.893-0.222 0.346-0.617 0.889-1.184 1.63v0z" fill="#81ffd9" data-fill-palette-color="accent"></path><path d="M75.539 232.122l1.154 0.901-0.057 0.118-3.114-0.055-0.136-0.066 0.764-1.588-0.059-0.063c-1.476 0.713-2.743 0.816-3.802 0.307v0c-0.484-0.233-0.864-0.542-1.141-0.929-0.273-0.377-0.412-0.786-0.415-1.227v0c-0.01-0.258 0.054-0.57 0.193-0.936 0.139-0.366 0.417-0.984 0.836-1.855v0l2.863-5.954-1.306-0.863 0.087-0.182 2.914 1.401-3.042 6.327c-0.3 0.623-0.504 1.087-0.614 1.392-0.1 0.302-0.155 0.577-0.163 0.827v0c-0.01 0.3 0.08 0.586 0.27 0.856 0.181 0.273 0.435 0.489 0.762 0.646v0c0.387 0.186 0.809 0.27 1.266 0.251 0.45-0.022 0.914-0.149 1.39-0.382v0l3.719-7.733-1.315-0.867 0.087-0.182 2.923 1.406z" fill="#81ffd9" data-fill-palette-color="accent"></path><path d="M95.691 240.047l1.454 0.604-0.056 0.204-4.655-1.266 0.056-0.204 1.578 0.22 1.734-6.375c0.178-0.654 0.294-1.145 0.348-1.471 0.054-0.326 0.058-0.61 0.013-0.852v0c-0.052-0.32-0.212-0.601-0.481-0.841-0.26-0.245-0.592-0.422-0.993-0.531v0c-0.849-0.231-1.705-0.078-2.568 0.46v0l-2.3 8.455 1.473 0.61-0.055 0.204-4.685-1.275 0.056-0.204 1.579 0.221 2.347-8.63-1.326-0.956 0.047-0.175 3.093-0.202 0.204 0.055-0.428 1.575c1.377-0.843 2.649-1.106 3.815-0.789v0c0.518 0.141 0.957 0.382 1.317 0.724 0.366 0.343 0.59 0.721 0.673 1.133v0c0.057 0.252 0.05 0.57-0.02 0.954-0.068 0.378-0.23 1.037-0.486 1.977v0z" fill="#81ffd9" data-fill-palette-color="accent"></path><path d="M110.391 227.839c0.039-0.36 0.187-0.642 0.446-0.844 0.259-0.208 0.569-0.293 0.929-0.254v0c0.36 0.039 0.645 0.188 0.853 0.446 0.203 0.251 0.284 0.557 0.246 0.918v0c-0.039 0.36-0.184 0.645-0.437 0.855-0.259 0.208-0.569 0.293-0.929 0.254v0c-0.36-0.039-0.645-0.188-0.853-0.447-0.208-0.259-0.293-0.569-0.255-0.928zM111.052 242.568l1.162-10.775-0.211-0.022-3.102 0.678-0.019 0.18 1.46 0.735-0.972 9.022-1.594 0.031-0.023 0.21 4.827 0.521 0.022-0.211z" fill="#81ffd9" data-fill-palette-color="accent"></path><path d="M124.063 244.431l7.247-0.256 0.162-0.57-7.247 0.256z" fill="#81ffd9" data-fill-palette-color="accent"></path><path d="M146.373 229.441c-0.965 0.207-1.775 0.639-2.431 1.295-0.657 0.649-1.105 1.46-1.342 2.431-0.244 0.973-0.249 2.007-0.014 3.103v0c0.228 1.063 0.63 1.973 1.205 2.729 0.58 0.748 1.271 1.279 2.073 1.594 0.803 0.315 1.65 0.377 2.543 0.185v0c0.926-0.199 1.68-0.618 2.263-1.258 0.577-0.639 0.937-1.441 1.08-2.406v0l0.049-0.299-0.118-0.026-0.164 0.344c-0.303 0.635-0.676 1.138-1.118 1.507-0.443 0.37-0.976 0.622-1.599 0.756v0c-1.149 0.247-2.122 0.03-2.921-0.65-0.804-0.672-1.363-1.743-1.679-3.214v0c-0.212-0.985-0.259-1.895-0.144-2.73 0.109-0.834 0.363-1.524 0.761-2.069 0.398-0.546 0.899-0.883 1.503-1.013v0c0.505-0.109 0.882-0.049 1.13 0.18 0.242 0.23 0.478 0.594 0.709 1.094v0c0.202 0.43 0.389 0.741 0.561 0.93 0.17 0.183 0.425 0.238 0.766 0.165v0c0.282-0.061 0.49-0.198 0.623-0.412 0.133-0.214 0.168-0.465 0.105-0.754v0c-0.134-0.624-0.572-1.079-1.313-1.366-0.74-0.281-1.583-0.319-2.528-0.116z" fill="#81ffd9" data-fill-palette-color="accent"></path><path d="M163.814 223.741c0.925-0.38 1.84-0.495 2.744-0.344 0.898 0.154 1.715 0.551 2.45 1.193 0.729 0.644 1.307 1.484 1.734 2.521v0c0.429 1.043 0.611 2.05 0.545 3.021-0.072 0.973-0.373 1.83-0.903 2.571-0.537 0.743-1.267 1.305-2.193 1.685v0c-0.931 0.383-1.849 0.499-2.753 0.348-0.898-0.154-1.715-0.551-2.451-1.192-0.729-0.644-1.308-1.488-1.737-2.531v0c-0.426-1.037-0.607-2.041-0.541-3.011 0.072-0.973 0.373-1.83 0.903-2.571 0.537-0.743 1.271-1.306 2.202-1.69zM163.02 230.286c0.659 1.602 1.436 2.742 2.331 3.419 0.895 0.677 1.809 0.824 2.74 0.441v0c0.925-0.38 1.468-1.126 1.629-2.237 0.16-1.111-0.089-2.468-0.748-4.07v0c-0.656-1.596-1.432-2.733-2.327-3.41-0.895-0.677-1.806-0.826-2.732-0.445v0c-0.931 0.383-1.477 1.13-1.637 2.241-0.16 1.111 0.088 2.465 0.744 4.061z" fill="#81ffd9" data-fill-palette-color="accent"></path><path d="M190.631 221.169l1.416-0.688 0.116 0.177-4.033 2.647-0.116-0.177 1.211-1.036-3.625-5.523c-0.372-0.567-0.663-0.979-0.871-1.235-0.209-0.257-0.419-0.448-0.63-0.575v0c-0.274-0.173-0.591-0.239-0.949-0.196-0.356 0.033-0.708 0.164-1.056 0.392v0c-0.735 0.483-1.188 1.225-1.356 2.227v0l4.808 7.325 1.432-0.699 0.117 0.177-4.059 2.664-0.116-0.177 1.212-1.036-4.908-7.477-1.595 0.361-0.1-0.152 1.898-2.45 0.177-0.116 0.895 1.364c0.281-1.59 0.927-2.717 1.937-3.381v0c0.449-0.295 0.92-0.464 1.415-0.506 0.499-0.047 0.931 0.035 1.294 0.246v0c0.226 0.125 0.46 0.34 0.702 0.648 0.238 0.302 0.624 0.859 1.159 1.673v0z" fill="#81ffd9" data-fill-palette-color="accent"></path><path d="M207.109 206.946l1.264-0.937 0.147 0.152-3.476 3.345-0.147-0.153 1-1.241-4.581-4.761c-0.47-0.489-0.831-0.84-1.084-1.054-0.252-0.214-0.494-0.363-0.725-0.448v0c-0.302-0.12-0.624-0.126-0.968-0.019-0.344 0.098-0.666 0.291-0.966 0.58v0c-0.634 0.61-0.942 1.423-0.923 2.439v0l6.075 6.315 1.279-0.952 0.147 0.153-3.498 3.365-0.147-0.152 1-1.241-6.201-6.445-1.501 0.647-0.126-0.13 1.414-2.758 0.152-0.147 1.132 1.176c-0.016-1.615 0.411-2.841 1.282-3.679v0c0.387-0.372 0.819-0.625 1.296-0.759 0.482-0.138 0.921-0.137 1.318 0.005v0c0.245 0.081 0.515 0.25 0.809 0.507 0.29 0.253 0.772 0.73 1.447 1.431v0z" fill="#81ffd9" data-fill-palette-color="accent"></path><path d="M218.678 189.038l-0.108-0.365 0.105-0.06 0.164 0.255c0.538 0.814 0.809 1.646 0.813 2.496 0.009 0.845-0.267 1.653-0.826 2.424v0c-0.548 0.755-1.231 1.284-2.049 1.587-0.817 0.303-1.697 0.365-2.638 0.187-0.938-0.183-1.86-0.604-2.767-1.263v0c-0.907-0.659-1.593-1.423-2.058-2.291-0.455-0.87-0.646-1.768-0.571-2.692 0.074-0.925 0.411-1.801 1.011-2.627v0c0.71-0.978 1.547-1.519 2.511-1.624 0.96-0.099 1.997 0.243 3.112 1.028v0l0.017 0.199-4.113 5.664c0.344 0.292 0.62 0.512 0.826 0.662v0c1.277 0.927 2.434 1.373 3.472 1.339 1.038-0.035 1.892-0.514 2.562-1.438v0c0.343-0.473 0.566-1.008 0.669-1.606 0.102-0.598 0.058-1.223-0.132-1.875zM209.816 187.083c-0.477 0.657-0.6 1.403-0.366 2.236 0.228 0.829 0.766 1.648 1.615 2.455v0l2.812-4.181c-0.141-0.16-0.407-0.383-0.798-0.667v0c-0.755-0.548-1.392-0.791-1.911-0.728-0.515 0.058-0.966 0.353-1.352 0.885z" fill="#81ffd9" data-fill-palette-color="accent"></path><path d="M219.133 170.469c-0.432 0.888-0.591 1.792-0.479 2.712 0.106 0.918 0.468 1.77 1.086 2.555 0.615 0.792 1.427 1.433 2.436 1.924v0c0.978 0.476 1.942 0.72 2.89 0.734 0.946 0.005 1.79-0.212 2.534-0.649 0.743-0.438 1.314-1.067 1.713-1.888v0c0.414-0.851 0.549-1.704 0.405-2.558-0.147-0.848-0.557-1.626-1.228-2.334v0l-0.206-0.223-0.093 0.078 0.17 0.34c0.313 0.63 0.479 1.233 0.497 1.81 0.018 0.576-0.112 1.151-0.391 1.725v0c-0.514 1.057-1.285 1.69-2.312 1.899-1.025 0.218-2.213-0.001-3.566-0.659v0c-0.906-0.441-1.652-0.964-2.238-1.57-0.589-0.6-0.976-1.225-1.16-1.875-0.184-0.65-0.141-1.252 0.129-1.807v0c0.226-0.465 0.506-0.725 0.838-0.78 0.33-0.049 0.763-0.01 1.299 0.117v0c0.464 0.106 0.823 0.15 1.078 0.132 0.249-0.021 0.45-0.188 0.602-0.502v0c0.126-0.26 0.146-0.508 0.06-0.744-0.087-0.236-0.263-0.419-0.529-0.548v0c-0.574-0.279-1.202-0.215-1.885 0.192-0.677 0.41-1.227 1.049-1.65 1.919z" fill="#81ffd9" data-fill-palette-color="accent"></path><path d="M222.628 155.095l1.81 3.523 0.131-0.014 0.351-1.167 7.946 2.395c0.514 0.155 0.946 0.222 1.297 0.201 0.35-0.021 0.664-0.144 0.942-0.368v0c0.426-0.32 0.719-0.744 0.877-1.272v0c0.155-0.514 0.15-1.045-0.014-1.592-0.158-0.546-0.458-1.018-0.899-1.418v0l-0.096 0.077c0.207 0.385 0.336 0.722 0.389 1.011 0.059 0.291 0.049 0.569-0.03 0.833v0c-0.165 0.546-0.476 0.859-0.935 0.938v0c-0.331 0.097-0.789 0.057-1.373-0.119v0l-7.589-2.287 0.807-2.681-0.349-0.273-0.854 2.835-2.362-0.712z" fill="#81ffd9" data-fill-palette-color="accent"></path><path d="M2.453 124.788c0-3.861 3.13-6.991 6.991-6.991 3.861 0 6.991 3.13 6.99 6.991 0 3.861-3.13 6.991-6.99 6.99-3.861 0-6.991-3.13-6.991-6.99z" fill="#81ffd9" data-fill-palette-color="accent"></path><path d="M227.997 124.788c0-3.861 3.13-6.991 6.991-6.991 3.861 0 6.991 3.13 6.99 6.991 0 3.861-3.13 6.991-6.99 6.99-3.861 0-6.991-3.13-6.991-6.99z" fill="#81ffd9" data-fill-palette-color="accent"></path></g></svg></g></svg></g><g></g></svg></g><defs></defs></svg><rect width="288.611426626113" height="247.2" fill="none" stroke="none" visibility="hidden"></rect></g></svg></g></svg>